<?xml version="1.0" standalone="no"?>
<!DOCTYPE svg PUBLIC "-//W3C//DTD SVG 20010904//EN"
 "http://www.w3.org/TR/2001/REC-SVG-20010904/DTD/svg10.dtd">
<svg version="1.0" xmlns="http://www.w3.org/2000/svg"
 width="3780.000000pt" height="1890.000000pt" viewBox="0 0 3780.000000 1890.000000"
 preserveAspectRatio="xMidYMid meet">

<g transform="translate(0.000000,1890.000000) scale(0.100000,-0.100000)"
fill="#000000" stroke="none">
<path d="M35151 18154 c0 -11 3 -14 6 -6 3 7 2 16 -1 19 -3 4 -6 -2 -5 -13z"/>
<path d="M5296 18122 c-9 -14 8 -57 80 -199 35 -70 64 -131 64 -136 0 -15 71
-150 92 -176 21 -24 27 -26 63 -19 22 5 72 13 110 19 39 6 98 17 132 25 34 8
82 14 106 14 67 0 76 18 42 82 -15 29 -39 70 -53 93 -15 22 -39 63 -53 90 -15
28 -45 79 -67 115 l-39 65 -124 11 c-226 21 -346 26 -353 16z"/>
<path d="M18975 17985 c-22 -8 -46 -15 -53 -15 -37 0 -281 -124 -349 -176 -94
-72 -244 -244 -299 -341 -56 -99 -68 -128 -95 -232 -40 -153 -17 -652 36 -768
18 -39 100 -99 112 -81 4 7 8 64 9 127 l1 115 56 107 c39 76 64 140 82 216 32
127 66 196 142 286 61 73 127 120 188 136 22 5 65 19 95 30 72 27 231 29 280
5 25 -13 49 -15 105 -11 55 5 76 3 91 -8 10 -8 26 -15 34 -15 20 -1 72 -75 87
-125 10 -33 10 -58 -2 -141 -8 -56 -15 -119 -15 -140 0 -38 -31 -104 -48 -104
-5 0 -27 -18 -50 -41 -32 -33 -47 -61 -72 -137 -30 -92 -32 -101 -25 -197 4
-55 14 -120 21 -145 20 -65 18 -78 -21 -154 -40 -78 -44 -106 -16 -106 25 0
71 -38 71 -59 0 -17 -32 -44 -83 -71 -26 -13 -27 -15 -11 -27 16 -11 70 -25
159 -38 49 -7 74 -21 60 -33 -16 -14 -165 -53 -220 -58 -71 -7 -89 -6 -166 9
-49 9 -83 21 -97 35 -13 13 -28 19 -41 15 -24 -6 -61 -49 -61 -70 0 -42 93
-163 126 -163 8 0 12 16 11 49 -2 59 23 97 54 81 10 -6 28 -10 40 -10 12 0 43
-13 70 -29 40 -25 49 -28 59 -16 10 12 19 11 58 -4 58 -22 79 -57 63 -102 -8
-24 -7 -34 4 -45 8 -8 11 -22 8 -32 -8 -22 -44 -75 -57 -84 -6 -4 4 -14 20
-24 17 -10 35 -27 40 -38 5 -12 18 -22 29 -24 59 -8 65 -12 65 -40 0 -55 -30
-125 -72 -170 l-42 -46 29 -12 c39 -17 148 -15 197 2 78 27 127 89 142 182 3
18 17 48 31 66 14 18 25 42 25 54 0 11 11 29 25 39 20 15 27 32 35 92 6 40 16
85 24 100 30 58 56 119 77 183 28 87 43 101 93 87 52 -14 97 -4 128 29 48 51
68 109 98 287 32 185 14 307 -48 321 -15 3 -31 7 -37 8 -6 2 -11 104 -12 277
-2 347 -16 434 -101 609 -37 76 -119 165 -194 213 -15 10 -48 48 -72 85 -89
134 -215 224 -399 286 -64 22 -362 22 -422 1z m674 -1244 c11 -7 6 -19 -28
-60 -50 -60 -111 -86 -137 -59 -25 25 -10 72 29 91 80 38 110 44 136 28z
m-119 -210 c0 -9 19 -31 42 -49 38 -29 48 -32 117 -32 98 0 123 -13 135 -67 6
-32 5 -52 -8 -83 -10 -25 -16 -70 -16 -120 0 -54 -7 -99 -20 -137 -11 -32 -26
-101 -34 -154 -19 -128 -43 -207 -75 -249 -15 -19 -32 -46 -39 -60 -10 -21
-11 -9 -6 65 3 50 12 117 20 150 27 119 15 166 -101 395 -12 25 -27 73 -33
107 -6 33 -19 78 -30 100 -24 46 -37 103 -24 103 5 0 14 18 21 41 12 40 13 40
32 23 10 -9 19 -24 19 -33z"/>
<path d="M18800 16594 c-67 -31 -69 -33 -47 -45 9 -6 17 -19 17 -29 0 -27 35
-47 95 -53 46 -6 53 -4 89 27 38 33 39 35 26 65 -14 36 -55 61 -97 61 -15 0
-53 -12 -83 -26z"/>
<path d="M18687 16543 c-26 -7 -15 -28 14 -28 15 0 25 7 27 18 3 17 -6 19 -41
10z"/>
<path d="M18130 16340 c0 -11 5 -20 10 -20 6 0 10 9 10 20 0 11 -4 20 -10 20
-5 0 -10 -9 -10 -20z"/>
<path d="M19077 16163 c-3 -5 -2 -15 2 -22 9 -14 69 -3 74 14 3 12 -69 19 -76
8z"/>
<path d="M18877 16100 c-3 -11 -1 -23 4 -26 5 -3 9 6 9 20 0 31 -6 34 -13 6z"/>
<path d="M18846 16037 c-5 -15 -6 -31 -2 -34 11 -11 18 5 14 34 l-4 28 -8 -28z"/>
<path d="M18812 15973 c-14 -26 -16 -73 -2 -73 12 0 23 41 18 71 l-3 24 -13
-22z"/>
<path d="M33790 15626 c-25 -5 -47 -13 -50 -17 -3 -4 -17 -13 -30 -18 -14 -6
-47 -24 -75 -40 -27 -17 -60 -30 -71 -30 -12 -1 -24 -8 -28 -16 -3 -8 -12 -15
-19 -15 -8 0 -22 -9 -32 -20 -10 -11 -26 -20 -35 -20 -10 0 -20 -7 -24 -15 -3
-8 -17 -15 -30 -15 -14 0 -29 -6 -33 -13 -4 -7 -21 -19 -37 -27 -68 -35 -66
-32 -66 -90 0 -43 4 -58 19 -67 15 -10 19 -25 20 -78 0 -45 6 -71 16 -81 10
-10 15 -35 15 -70 0 -47 3 -55 17 -52 14 2 16 13 14 60 -2 49 0 57 18 63 11 3
29 1 40 -4 22 -12 44 7 39 35 -2 9 3 19 10 21 9 3 12 -11 12 -51 0 -45 4 -58
22 -70 18 -13 19 -18 8 -31 -7 -8 -28 -15 -46 -15 -19 0 -34 -4 -34 -10 0 -5
9 -10 19 -10 32 0 35 -19 7 -41 -15 -11 -24 -25 -21 -30 4 -5 -5 -9 -19 -9
-14 0 -26 5 -26 10 0 6 -7 10 -15 10 -19 0 -20 -52 -1 -83 7 -12 16 -44 20
-70 3 -27 13 -58 21 -70 8 -12 15 -34 15 -49 0 -36 25 -37 89 -3 25 14 100 51
166 83 147 72 295 150 316 168 8 8 23 14 32 14 21 0 49 40 38 54 -5 6 -11 36
-15 66 -7 50 -19 97 -62 228 -8 24 -30 74 -49 111 -19 37 -35 77 -35 89 0 11
-7 25 -17 30 -11 7 -16 21 -15 45 1 20 -5 40 -13 47 -8 7 -15 29 -15 49 0 53
-8 58 -60 47z m-440 -346 c0 -5 -7 -10 -16 -10 -8 0 -12 5 -9 10 3 6 10 10 16
10 5 0 9 -4 9 -10z m95 -59 c3 -5 1 -12 -5 -16 -5 -3 -10 1 -10 9 0 18 6 21
15 7z m-69 -53 c3 -13 13 -31 21 -40 8 -9 12 -22 8 -27 -8 -14 -45 -14 -65 -1
-13 8 -13 13 -1 31 11 19 11 23 -3 31 -20 11 -12 28 14 28 11 0 22 -10 26 -22z
m134 -33 c0 -8 -2 -15 -4 -15 -2 0 -6 7 -10 15 -3 8 -1 15 4 15 6 0 10 -7 10
-15z m30 -127 c0 -16 -3 -19 -11 -11 -6 6 -8 16 -5 22 11 17 16 13 16 -11z"/>
<path d="M19912 15258 c-11 -14 -5 -65 9 -74 15 -9 10 -61 -6 -74 -9 -7 -15
-29 -15 -54 0 -22 -7 -63 -15 -90 -8 -27 -15 -62 -15 -79 0 -16 -6 -41 -14
-55 -13 -27 -29 -81 -45 -155 -9 -41 -33 -73 -62 -82 -10 -3 -30 -27 -45 -53
-47 -80 -180 -245 -251 -313 -38 -35 -104 -88 -147 -118 -92 -62 -87 -63 -199
26 -208 166 -307 286 -406 497 -22 48 -48 89 -58 93 -9 4 -34 -3 -57 -16 l-41
-22 -19 24 c-51 68 -121 360 -110 456 l7 54 -29 -6 c-52 -10 -114 -27 -132
-36 -91 -49 -138 -61 -327 -87 -156 -22 -245 -40 -310 -64 -33 -12 -80 -28
-105 -35 -84 -25 -110 -37 -120 -55 -23 -43 -12 -211 37 -575 22 -158 24 -709
4 -785 -7 -25 -18 -70 -26 -100 -7 -30 -19 -69 -26 -86 -10 -26 -10 -36 4 -64
10 -18 17 -37 17 -43 0 -5 6 -23 14 -40 47 -106 81 -263 91 -413 7 -108 32
-257 62 -364 33 -120 44 -158 64 -225 11 -38 27 -95 36 -125 28 -100 23 -96
73 -50 49 46 77 60 119 60 57 0 49 27 -23 75 -59 39 -102 94 -137 175 -21 48
-24 71 -24 175 0 121 16 193 52 236 7 8 13 21 13 27 0 6 28 39 63 74 72 73
168 125 292 157 153 40 388 23 527 -39 64 -28 130 -90 158 -149 14 -27 28 -50
31 -51 3 0 13 8 22 18 82 89 119 121 172 150 114 61 225 87 375 86 328 -3 520
-124 520 -329 0 -123 -52 -192 -183 -244 l-29 -11 69 -46 c100 -67 160 -139
198 -239 29 -74 27 -239 -3 -317 -55 -147 -160 -244 -332 -307 -80 -29 -262
-54 -340 -46 -228 22 -342 62 -446 156 l-55 50 -47 -39 c-167 -137 -381 -187
-649 -152 -124 17 -267 71 -303 115 -18 21 -25 19 -69 -21 -22 -20 -56 -46
-77 -58 -21 -12 -44 -32 -50 -46 -12 -24 -37 -279 -50 -503 -3 -59 -10 -109
-14 -112 -7 -5 -62 -20 -245 -70 -27 -7 -66 -19 -85 -26 -19 -6 -51 -17 -70
-24 -84 -29 -227 -77 -255 -85 -45 -13 -196 -69 -228 -86 -16 -8 -33 -14 -38
-14 -17 0 -168 -78 -226 -117 -189 -125 -313 -351 -328 -598 -19 -302 89 -553
300 -699 151 -104 270 -126 465 -87 52 11 108 24 123 30 16 6 37 11 47 11 19
0 19 -30 23 -1147 3 -988 6 -1157 19 -1209 24 -95 71 -213 99 -248 5 -6 38
-47 74 -91 49 -60 64 -85 60 -102 -3 -12 -10 -56 -16 -97 -12 -92 -28 -133
-79 -200 -83 -112 -85 -118 -88 -343 l-3 -203 43 0 c100 0 204 -64 251 -155
16 -31 20 -59 21 -130 0 -81 -3 -95 -27 -136 -25 -42 -57 -70 -125 -107 -41
-22 -155 -27 -192 -8 -64 31 -66 29 -75 -102 -4 -64 -8 -133 -9 -152 l-1 -35
95 -5 c52 -3 101 -9 108 -13 20 -13 15 -72 -9 -93 -16 -14 -40 -20 -100 -23
-86 -3 -102 -13 -97 -58 l3 -28 81 -1 c44 0 86 -4 92 -8 21 -12 14 -73 -10
-96 -17 -16 -35 -20 -83 -20 -83 0 -92 -9 -97 -97 -2 -40 -7 -75 -11 -79 -4
-4 -26 -10 -50 -13 l-42 -6 -2 -82 c-1 -45 -7 -99 -12 -120 -6 -20 -16 -104
-22 -187 l-12 -149 22 -19 c13 -10 39 -22 60 -28 20 -5 54 -27 75 -49 l39 -40
27 41 c15 22 42 47 60 54 42 18 180 18 250 -1 108 -28 139 -97 160 -365 6 -74
15 -155 20 -180 5 -25 9 -91 10 -146 0 -116 -19 -174 -70 -217 -38 -32 -117
-43 -200 -29 -90 16 -116 39 -144 125 -5 16 -17 17 -98 15 l-93 -3 -3 -32 c-4
-45 -53 -91 -103 -99 -22 -4 -51 -15 -64 -26 -21 -17 -25 -28 -25 -77 0 -32 7
-79 16 -105 18 -52 38 -65 157 -102 49 -15 62 -16 79 -5 43 27 105 42 215 51
130 12 177 4 267 -41 33 -16 65 -29 71 -29 28 0 69 95 115 264 15 56 44 157
65 226 20 69 43 150 50 181 6 31 15 61 18 66 11 17 35 208 42 326 7 101 9 111
36 142 33 37 47 82 85 265 14 69 31 148 39 175 7 28 16 68 20 90 4 22 18 60
32 83 14 25 23 52 20 63 -6 21 15 165 33 226 6 21 21 121 35 223 28 216 42
281 83 410 75 230 92 285 92 296 0 7 15 59 34 116 77 236 125 400 161 548 14
58 34 137 45 175 11 39 27 97 34 130 18 80 36 147 71 265 58 199 94 335 154
590 83 353 98 411 229 845 17 55 42 132 57 170 14 39 30 81 35 95 33 97 50
117 93 106 18 -4 32 -28 65 -105 23 -56 42 -106 42 -113 0 -16 37 -129 71
-217 16 -41 32 -91 35 -111 6 -36 3 -40 -78 -121 -118 -116 -178 -229 -213
-399 -69 -336 108 -690 440 -881 33 -19 103 -54 155 -77 100 -45 114 -57 129
-119 6 -21 20 -69 31 -108 12 -38 28 -92 35 -120 18 -69 83 -315 105 -402 30
-112 29 -111 127 -105 112 7 182 -10 229 -56 42 -41 54 -69 54 -128 0 -37 -6
-51 -37 -85 -22 -24 -37 -50 -35 -60 2 -11 19 -42 38 -70 19 -28 34 -61 34
-74 0 -32 -25 -55 -60 -55 -51 0 -76 19 -106 82 -28 59 -58 88 -74 71 -5 -4
-10 -39 -12 -77 -3 -68 -2 -70 27 -86 17 -10 33 -29 38 -46 5 -16 15 -49 23
-74 9 -25 21 -67 29 -93 20 -70 25 -74 93 -69 87 6 86 10 90 -249 l4 -220 -37
-32 -37 -32 20 -45 c11 -25 23 -66 27 -90 8 -47 37 -166 75 -305 12 -44 26
-95 30 -113 5 -19 10 -35 12 -38 2 -2 22 6 44 18 56 30 163 30 223 -1 90 -47
109 -93 117 -285 6 -137 10 -158 24 -136 6 8 10 26 10 40 0 14 7 38 15 54 8
15 15 33 15 38 0 17 82 203 91 206 5 2 9 10 9 17 0 18 65 73 96 81 15 4 72 4
128 2 158 -9 205 -44 273 -208 13 -30 23 -60 23 -67 0 -7 6 -27 14 -45 14 -31
40 -114 71 -223 29 -102 45 -192 45 -251 0 -51 -4 -65 -25 -88 -63 -68 -218
-90 -294 -42 -22 14 -52 43 -67 65 -16 22 -39 42 -52 44 -19 4 -27 -4 -47 -44
-14 -27 -41 -59 -62 -74 -71 -48 -252 -28 -298 33 -9 10 -15 8 -34 -12 -19
-20 -22 -32 -18 -63 13 -91 27 -147 42 -163 8 -9 15 -20 15 -24 0 -12 43 -45
60 -46 8 0 29 -7 45 -16 17 -9 57 -22 90 -30 57 -12 62 -11 105 11 50 26 146
44 261 49 76 3 92 9 238 78 82 38 87 46 97 173 6 79 -2 179 -26 315 -11 63
-48 209 -85 334 -19 63 -19 179 0 215 8 16 12 31 10 33 -3 3 -15 56 -26 119
-12 63 -28 148 -35 189 -8 41 -20 117 -26 168 -10 79 -9 95 3 102 93 53 124
94 123 162 -2 43 -32 88 -46 66 -4 -7 -8 -25 -8 -39 0 -41 -53 -105 -106 -128
-64 -29 -200 -29 -261 -1 -40 18 -43 22 -43 59 0 30 5 43 19 51 28 14 111 12
143 -4 20 -11 31 -11 49 -2 38 19 34 35 -18 57 -111 48 -136 63 -164 102 -23
32 -29 51 -29 91 0 43 5 56 33 87 36 41 82 65 144 74 24 4 45 10 47 14 3 4 1
25 -4 47 -5 22 -14 121 -20 219 -10 162 -13 182 -31 197 -37 31 -52 23 -46
-22 7 -55 -25 -116 -82 -154 -40 -27 -52 -29 -130 -29 -71 0 -92 3 -122 21
-93 57 -69 142 34 120 93 -19 112 -20 132 -4 20 16 20 16 -8 41 -15 14 -34 25
-41 25 -20 0 -98 37 -122 57 -36 32 -54 71 -54 120 0 108 124 178 253 142 21
-5 46 -7 57 -4 17 6 18 9 5 53 -14 51 -31 172 -40 297 -7 93 -34 200 -76 292
-16 35 -29 71 -29 79 0 18 30 30 100 39 77 10 264 59 325 85 11 5 47 20 80 34
118 49 236 119 354 210 259 200 459 518 535 851 105 459 24 959 -212 1315 -97
146 -314 346 -477 441 -237 137 -436 189 -797 210 -115 7 -208 16 -208 19 0
11 283 20 639 20 263 0 352 3 409 15 250 52 425 256 469 545 18 116 12 346
-12 435 -67 254 -237 394 -515 425 -55 7 -302 11 -592 11 -394 0 -499 3 -507
13 -7 8 -13 127 -17 327 -4 173 -10 322 -16 332 -7 14 -23 17 -102 17 -139 0
-233 38 -286 117 -22 33 -25 46 -24 127 0 64 7 114 23 166 72 244 226 716 241
742 6 10 10 23 10 30 0 6 19 49 42 95 43 88 103 152 163 177 43 18 51 32 64
116 11 67 19 85 82 180 l71 105 -7 205 c-8 247 -7 1100 1 1185 9 88 -8 140
-54 169 -21 13 -58 28 -82 34 -25 5 -70 20 -100 32 -93 37 -356 109 -605 165
-98 23 -179 45 -195 54 -32 18 -77 22 -88 9z m-1991 -4607 c230 -43 374 -168
455 -396 16 -46 18 -126 24 -940 11 -1306 11 -2490 0 -2571 -10 -79 -36 -132
-88 -182 -83 -78 -222 -101 -491 -83 -238 17 -343 51 -430 140 -46 48 -51 55
-93 146 l-23 50 -3 1337 c-2 1304 -3 1337 -22 1343 -10 3 -89 -17 -182 -48
-248 -82 -261 -86 -341 -98 -121 -18 -203 9 -285 92 -117 119 -170 338 -126
518 28 114 60 169 148 256 85 84 148 121 289 172 40 13 81 29 92 34 11 5 54
20 95 34 41 13 127 43 190 65 63 23 129 45 145 50 17 6 39 14 50 19 36 16 128
44 210 62 105 23 263 23 386 0z m3934 -41 c113 -12 177 -41 237 -109 70 -81
83 -133 83 -341 0 -149 -3 -182 -19 -225 -40 -103 -103 -176 -191 -223 l-50
-27 -695 -5 c-382 -3 -700 -8 -706 -12 -8 -5 -15 -57 -19 -135 -3 -71 -13
-181 -21 -245 -8 -64 -14 -142 -14 -173 0 -65 -15 -62 125 -25 341 90 656 81
995 -30 81 -27 117 -43 204 -95 148 -87 241 -167 333 -287 69 -88 140 -211
169 -291 37 -105 64 -191 64 -207 0 -10 7 -47 17 -82 12 -48 16 -109 16 -263
1 -245 -14 -330 -97 -560 -62 -171 -222 -373 -410 -519 -194 -149 -368 -220
-706 -287 -206 -40 -766 -37 -985 6 -261 52 -396 101 -540 197 -121 81 -206
179 -251 288 -30 74 -43 231 -26 321 23 118 103 238 200 296 41 25 57 28 127
28 58 0 94 -6 125 -19 113 -49 141 -61 230 -103 110 -52 156 -69 226 -87 27
-7 55 -15 60 -19 6 -3 78 -13 161 -23 141 -15 158 -15 265 0 180 27 267 64
342 147 59 65 80 107 100 193 41 176 -5 355 -116 452 -112 99 -310 134 -548
99 -110 -16 -297 -63 -375 -95 -51 -21 -235 -15 -308 9 -95 33 -182 80 -241
133 -54 47 -126 149 -141 198 -4 14 -12 30 -17 36 -15 19 -38 183 -38 274 0
93 15 336 31 495 5 55 14 154 19 220 11 134 38 442 45 522 8 87 46 214 91 303
10 19 49 67 88 106 106 107 201 151 346 163 138 12 1708 12 1815 1z m-4083
-5124 c92 -28 114 -55 83 -103 -16 -23 -21 -25 -64 -18 -105 17 -149 8 -135
-28 7 -18 71 -50 122 -62 41 -9 111 -80 114 -114 3 -51 -3 -96 -18 -119 -39
-60 -144 -92 -256 -78 -68 9 -107 38 -115 88 -5 33 -3 39 20 49 20 9 40 8 91
-3 53 -12 70 -13 95 -2 17 7 31 17 31 22 0 15 -34 40 -65 48 -152 38 -220 132
-167 231 23 43 63 72 120 88 64 17 89 17 144 1z m3128 -9 c30 -15 37 -53 16
-82 -12 -17 -29 -21 -118 -25 l-103 -5 0 -30 0 -30 88 -5 c74 -4 91 -8 103
-25 13 -18 12 -60 -2 -74 -7 -7 -96 -20 -141 -20 -38 -1 -43 -4 -49 -28 -12
-48 3 -56 101 -54 107 2 126 -7 128 -63 2 -60 -14 -66 -176 -66 l-139 0 -29
29 -29 29 0 215 c0 232 0 232 55 240 71 10 271 6 295 -6z m-3052 -802 c52 -16
92 -47 92 -72 0 -7 -9 -22 -20 -33 -17 -17 -28 -19 -100 -13 -92 7 -109 -2
-141 -72 -24 -51 -23 -89 1 -143 28 -61 75 -81 143 -59 55 18 89 11 106 -22
30 -55 -50 -106 -163 -104 -113 1 -193 55 -229 153 -24 66 -23 190 3 238 48
90 92 115 251 141 3 1 29 -6 57 -14z m-437 -16 c5 -8 9 -114 9 -236 l0 -222
-26 -20 c-32 -25 -76 -27 -114 -4 l-29 16 4 230 c2 211 4 232 21 245 24 17
122 11 135 -9z m3749 5 c14 -14 18 -80 6 -91 -4 -4 -49 -10 -99 -13 l-92 -5 0
-30 0 -30 85 -3 c46 -2 90 -8 97 -14 18 -14 16 -73 -2 -88 -8 -7 -45 -15 -82
-17 -86 -7 -105 -16 -101 -51 l3 -27 99 -3 c55 -1 106 -8 113 -14 18 -14 16
-69 -3 -96 -14 -21 -22 -22 -157 -22 -135 0 -144 1 -172 24 l-30 24 -3 204
c-4 275 -10 267 205 265 76 -1 126 -6 133 -13z"/>
<path d="M33424 15019 c-3 -6 -2 -15 2 -19 12 -12 38 5 30 19 -9 14 -23 14
-32 0z"/>
<path d="M33360 14911 c0 -11 5 -23 10 -26 6 -4 10 5 10 19 0 14 -4 26 -10 26
-5 0 -10 -9 -10 -19z"/>
<path d="M33995 14270 c3 -5 10 -10 16 -10 5 0 9 5 9 10 0 6 -7 10 -16 10 -8
0 -12 -4 -9 -10z"/>
<path d="M34037 14253 c-13 -12 -7 -23 12 -23 11 0 26 -7 35 -15 16 -16 36
-20 36 -7 0 13 -48 52 -63 52 -8 0 -17 -3 -20 -7z"/>
<path d="M5393 13808 c-8 -10 23 -57 138 -208 232 -306 249 -328 249 -338 0
-26 85 -42 276 -52 108 -5 200 -12 204 -15 5 -3 91 -12 192 -21 101 -8 201
-17 224 -20 36 -5 42 -3 47 15 3 12 0 27 -7 34 -7 6 -26 32 -43 57 -17 25 -41
56 -54 70 -13 14 -43 50 -66 80 -23 30 -56 73 -73 95 -17 22 -58 76 -90 121
-32 44 -72 94 -87 111 l-28 30 -230 6 c-126 4 -277 13 -335 21 -176 24 -304
30 -317 14z"/>
<path d="M22547 13562 c-8 -9 -36 -48 -62 -87 -27 -38 -51 -72 -54 -75 -3 -3
-24 -27 -45 -55 -59 -75 -205 -215 -224 -215 -5 0 -17 -9 -27 -20 -10 -11 -23
-20 -28 -20 -10 0 -36 -29 -37 -41 0 -3 21 -16 48 -29 26 -13 65 -36 86 -52
21 -15 43 -28 47 -28 17 0 56 46 64 75 9 36 16 95 8 78 -8 -21 -33 -15 -33 7
0 12 7 20 18 20 10 0 29 21 47 52 42 73 133 168 160 168 23 0 55 -28 55 -48 0
-7 4 -12 10 -12 5 0 27 -37 49 -83 45 -95 58 -103 183 -113 l75 -7 5 34 c3 19
3 58 0 86 -3 34 0 58 7 67 19 23 93 30 166 16 88 -17 111 -7 54 23 -24 13 -56
27 -71 31 -16 3 -28 11 -28 16 0 6 -7 10 -15 10 -16 0 -296 136 -392 190 -48
27 -52 28 -66 12z"/>
<path d="M16055 13295 c-27 -19 -54 -34 -59 -35 -5 0 -17 -6 -25 -14 -9 -8
-63 -38 -121 -68 -58 -30 -121 -64 -140 -76 l-35 -22 62 0 c36 0 78 7 100 16
53 23 90 39 148 64 28 12 57 25 65 29 8 4 49 18 90 31 41 12 79 25 83 27 11 6
-33 53 -49 53 -7 0 -14 4 -16 9 -1 5 -14 12 -28 15 -18 5 -38 -3 -75 -29z"/>
<path d="M23195 13250 c3 -5 10 -10 15 -10 17 0 102 -95 132 -148 16 -29 54
-73 83 -98 l54 -46 65 32 c37 17 66 34 66 38 -1 8 -95 82 -104 82 -3 0 -24 13
-48 29 -64 43 -175 101 -193 101 -9 0 -18 7 -21 15 -4 8 -17 15 -31 15 -13 0
-21 -4 -18 -10z"/>
<path d="M30490 13025 c0 -8 5 -15 10 -15 6 0 10 7 10 15 0 8 -4 15 -10 15 -5
0 -10 -7 -10 -15z"/>
<path d="M30846 12979 c-9 -11 -16 -26 -14 -34 5 -20 48 1 48 24 0 29 -14 33
-34 10z"/>
<path d="M31073 12983 c9 -2 25 -2 35 0 9 3 1 5 -18 5 -19 0 -27 -2 -17 -5z"/>
<path d="M26175 12935 c-141 -24 -232 -70 -326 -165 -138 -139 -198 -340 -170
-569 15 -124 40 -197 97 -283 78 -118 192 -199 339 -245 85 -26 305 -26 390 0
171 53 294 151 373 297 54 100 79 270 63 425 -15 137 -49 224 -127 325 -95
125 -226 197 -397 220 -97 12 -141 12 -242 -5z m250 -293 c82 -42 124 -106
150 -230 32 -157 4 -305 -77 -402 -67 -81 -253 -93 -345 -23 -144 110 -173
404 -58 573 31 44 101 94 147 103 47 11 144 0 183 -21z"/>
<path d="M11910 12930 c-80 -11 -146 -43 -170 -82 -20 -32 -20 -46 -18 -533 3
-477 4 -502 23 -540 27 -53 76 -79 194 -102 132 -25 377 -25 479 0 153 37 279
126 363 257 137 212 125 569 -25 775 -70 96 -158 154 -306 203 -68 22 -94 24
-280 27 -113 2 -230 0 -260 -5z m412 -293 c102 -45 145 -101 180 -227 39 -146
4 -318 -83 -397 -56 -51 -108 -68 -221 -71 -97 -4 -107 -2 -117 15 -14 27 -15
658 -1 684 9 17 22 19 100 19 72 0 100 -5 142 -23z"/>
<path d="M22620 12929 c-167 -13 -287 -85 -351 -211 -26 -51 -39 -151 -28
-221 17 -105 76 -173 207 -237 115 -56 115 -56 205 -85 140 -45 187 -79 187
-136 0 -61 -84 -109 -189 -109 -54 1 -165 23 -183 37 -29 22 -137 55 -158 48
-54 -17 -82 -92 -66 -178 20 -106 201 -178 446 -176 238 1 407 78 473 217 19
40 22 63 22 162 0 120 -5 136 -65 216 -24 32 -102 90 -150 111 -91 41 -121 53
-133 53 -7 0 -24 6 -39 14 -15 8 -41 17 -58 21 -55 12 -118 54 -129 86 -14 41
0 72 46 100 32 20 50 24 120 23 45 0 92 -5 105 -12 21 -10 77 -24 151 -39 58
-11 105 72 91 163 -5 36 -14 51 -48 78 -79 64 -247 92 -456 75z"/>
<path d="M23840 12931 c-74 -12 -151 -42 -251 -97 -41 -22 -144 -136 -167
-185 -45 -98 -52 -116 -61 -164 -28 -153 -19 -325 26 -444 27 -74 97 -174 164
-235 113 -101 254 -149 438 -148 224 1 396 78 508 227 78 104 108 216 108 405
0 164 -11 216 -73 340 -68 137 -180 229 -347 285 -56 19 -269 29 -345 16z
m278 -294 c89 -57 142 -185 142 -340 0 -135 -29 -222 -96 -291 -91 -94 -242
-102 -350 -19 -78 59 -118 162 -119 303 0 178 61 300 185 367 17 10 52 13 110
11 73 -3 91 -7 128 -31z"/>
<path d="M15595 12923 c-59 -13 -119 -38 -140 -57 l-24 -22 -3 -546 c-3 -533
-3 -546 17 -568 28 -31 48 -40 113 -51 82 -13 148 -2 178 30 23 25 24 31 24
181 0 108 4 160 12 168 7 7 44 12 97 12 176 0 337 51 412 130 78 81 119 186
119 305 0 213 -104 344 -321 404 -65 18 -101 21 -270 20 -107 -1 -203 -3 -214
-6z m397 -289 c64 -41 82 -104 52 -192 -18 -57 -47 -80 -122 -98 -81 -19 -119
-17 -142 6 -18 18 -20 33 -20 153 0 72 4 137 8 143 13 20 36 24 111 18 54 -4
83 -11 113 -30z"/>
<path d="M18150 12924 c-8 -3 -40 -12 -70 -22 -62 -18 -142 -67 -181 -109 -69
-75 -100 -193 -78 -304 6 -35 18 -71 25 -80 8 -8 14 -20 14 -26 0 -21 87 -89
155 -122 39 -19 82 -40 97 -47 14 -8 34 -14 45 -14 10 0 30 -6 45 -14 15 -8
42 -17 60 -21 18 -4 42 -14 53 -21 11 -8 27 -14 35 -14 9 0 31 -16 50 -35 82
-84 0 -175 -159 -175 -62 0 -194 26 -238 48 -10 5 -33 16 -51 25 -69 35 -106
14 -136 -74 -17 -53 -17 -58 -1 -89 19 -36 84 -100 102 -100 4 0 22 -7 38 -16
44 -24 209 -54 295 -54 42 0 102 7 133 15 32 8 66 15 75 15 18 0 118 39 141
55 8 6 37 33 66 60 39 39 56 65 73 116 12 36 22 81 22 101 0 42 -37 167 -56
189 -8 8 -14 19 -14 23 0 14 -81 81 -133 110 -54 30 -98 48 -227 93 -137 47
-199 107 -169 162 8 14 30 36 49 49 33 22 42 24 140 19 58 -3 121 -11 140 -17
119 -42 118 -42 141 -26 35 24 59 68 59 109 0 67 -66 146 -136 163 -16 4 -35
12 -43 18 -14 11 -332 20 -361 10z"/>
<path d="M19270 12920 c-94 -18 -190 -54 -228 -84 -49 -41 -79 -77 -111 -136
-21 -38 -24 -58 -24 -142 -1 -78 2 -101 16 -116 9 -10 17 -23 17 -28 0 -19 47
-74 91 -107 50 -38 172 -98 229 -112 14 -3 34 -10 45 -15 11 -5 39 -14 62 -20
23 -6 45 -15 48 -20 3 -6 14 -10 23 -10 10 0 32 -13 50 -29 25 -24 32 -38 32
-69 0 -46 -23 -71 -90 -95 -90 -33 -270 -9 -360 48 -56 36 -94 31 -132 -17
-26 -31 -30 -44 -30 -98 0 -60 2 -64 39 -97 55 -50 105 -71 218 -93 119 -24
229 -25 305 -5 30 8 65 15 78 15 20 0 49 11 122 44 51 23 140 105 140 129 0 6
8 19 17 30 15 15 18 39 18 135 0 110 -2 120 -28 164 -30 50 -88 111 -127 133
-72 41 -171 82 -265 110 -127 38 -195 84 -195 132 0 36 15 58 55 83 33 20 46
22 148 18 62 -2 121 -9 132 -15 30 -18 126 -30 161 -21 40 10 58 51 52 117 -8
78 -43 113 -158 152 -63 21 -277 33 -350 19z"/>
<path d="M24821 12918 c-19 -7 -44 -26 -55 -41 -21 -28 -21 -36 -21 -540 0
-485 1 -514 19 -554 20 -44 70 -85 116 -96 14 -3 165 -7 337 -8 276 -2 314 0
337 14 52 35 57 170 9 228 l-25 29 -208 0 c-156 0 -211 3 -217 13 -4 6 -10
204 -13 439 -5 414 -6 427 -26 455 -12 15 -34 36 -51 45 -38 23 -157 32 -202
16z"/>
<path d="M30920 12915 c-18 -21 -88 -39 -104 -26 -13 11 -56 4 -56 -10 0 -4 5
-11 10 -14 6 -3 10 -17 10 -31 0 -13 -4 -24 -10 -24 -21 0 -9 -24 30 -62 23
-21 45 -38 50 -38 6 0 10 -6 10 -14 0 -8 9 -18 20 -21 11 -3 20 -13 20 -21 0
-8 7 -14 15 -14 9 0 18 -7 21 -15 4 -8 12 -15 19 -15 6 0 20 -9 30 -20 10 -11
24 -20 32 -20 7 0 13 -7 13 -15 0 -8 6 -15 14 -15 8 0 16 -7 20 -15 3 -8 12
-15 21 -15 8 0 15 -6 15 -13 0 -8 11 -19 25 -25 14 -6 25 -16 25 -22 0 -5 9
-10 20 -10 11 0 20 -6 20 -14 0 -8 9 -18 20 -21 11 -3 20 -13 20 -21 0 -8 5
-14 11 -14 7 0 27 -16 46 -35 19 -19 38 -35 43 -35 6 0 10 -7 10 -15 0 -8 9
-15 20 -15 19 0 20 7 20 125 0 69 -4 125 -9 125 -5 0 -14 -7 -21 -15 -7 -8
-29 -15 -50 -15 -33 0 -37 -3 -37 -25 0 -36 -8 -40 -47 -21 -19 9 -39 16 -45
16 -6 0 -11 6 -11 14 0 8 -11 23 -24 33 -13 10 -27 34 -31 53 -6 29 -5 33 6
24 8 -6 24 -14 37 -17 16 -4 22 -1 22 12 0 9 8 22 18 29 23 17 18 78 -8 92 -9
5 -20 23 -24 41 -5 27 -9 31 -31 27 -16 -3 -30 1 -41 13 -10 11 -25 19 -35 19
-22 0 -33 16 -18 26 6 4 9 19 5 37 -3 16 -1 36 5 43 9 11 1 12 -40 7 -35 -4
-51 -2 -51 6 0 16 -15 14 -30 -4z m25 -66 c4 -11 16 -24 28 -28 19 -7 16 -9
-20 -15 -23 -4 -47 -5 -53 -1 -11 7 -14 48 -3 58 14 14 42 6 48 -14z m131 -99
c7 0 11 -6 8 -14 -3 -8 5 -23 17 -35 20 -19 21 -21 5 -27 -29 -11 -86 22 -86
49 0 29 9 39 28 32 7 -3 20 -5 28 -5z m-96 -72 c0 -13 -43 -6 -47 8 -2 7 6 10
22 7 14 -3 25 -10 25 -15z m170 2 c0 -5 -4 -10 -10 -10 -5 0 -10 5 -10 10 0 6
5 10 10 10 6 0 10 -4 10 -10z"/>
<path d="M13438 12905 c-61 -17 -100 -45 -121 -89 -40 -85 -49 -105 -77 -186
-17 -47 -49 -141 -71 -210 -23 -69 -47 -141 -54 -160 -7 -19 -23 -69 -35 -110
-24 -82 -38 -126 -65 -210 -22 -69 -30 -157 -17 -191 18 -45 83 -69 189 -69
72 0 95 4 112 18 24 19 57 103 67 169 12 80 19 82 201 76 117 -4 162 -9 175
-20 9 -8 21 -41 26 -73 11 -58 43 -121 78 -151 63 -53 206 -50 273 7 29 25 27
82 -5 191 -46 154 -56 187 -69 242 -8 30 -18 66 -23 80 -5 14 -19 60 -32 101
-12 41 -28 91 -35 110 -14 40 -34 108 -66 225 -30 108 -73 188 -118 219 -63
43 -231 59 -333 31z m145 -320 c8 -7 18 -31 22 -52 4 -21 18 -72 32 -113 34
-101 52 -180 46 -197 -8 -20 -38 -24 -143 -21 -84 3 -95 5 -98 22 -2 10 1 28
6 40 6 11 20 57 32 101 12 44 28 98 36 120 8 23 14 46 14 52 0 21 19 63 29 63
5 0 16 -7 24 -15z"/>
<path d="M14308 12904 c-53 -16 -98 -62 -98 -100 0 -36 73 -183 151 -304 5 -8
14 -27 20 -42 6 -16 15 -28 19 -28 4 0 13 -12 19 -27 11 -28 20 -43 52 -93
142 -220 139 -210 139 -401 0 -81 4 -159 9 -172 14 -35 73 -59 150 -61 163 -3
169 7 173 261 l3 181 31 44 c57 80 169 278 257 452 63 126 70 171 33 227 -32
48 -76 69 -143 69 -87 0 -118 -15 -157 -74 -20 -30 -36 -58 -36 -63 0 -4 -7
-21 -16 -38 -9 -16 -34 -75 -55 -130 -49 -124 -73 -170 -89 -170 -7 0 -43 59
-79 130 -109 211 -121 232 -162 279 -30 34 -54 50 -92 61 -60 18 -68 18 -129
-1z"/>
<path d="M16980 12913 c-119 -18 -141 -34 -191 -138 -54 -115 -184 -498 -266
-785 -9 -30 -22 -74 -30 -98 -8 -24 -16 -66 -17 -93 -1 -45 3 -54 30 -79 61
-54 233 -61 277 -12 20 22 57 116 57 144 0 11 10 38 22 59 l22 39 171 0 c202
0 195 4 224 -113 38 -153 96 -187 267 -155 56 10 65 15 78 42 12 27 12 41 -1
106 -8 41 -21 89 -29 107 -8 17 -14 41 -14 52 0 12 -6 36 -13 54 -8 18 -17 49
-21 69 -4 20 -13 50 -21 65 -8 15 -15 35 -15 43 0 8 -6 32 -14 55 -7 22 -24
74 -36 115 -12 41 -28 89 -36 107 -8 17 -14 40 -14 52 0 11 -6 35 -14 53 -7
18 -24 65 -36 103 -25 76 -55 128 -91 162 -38 34 -201 60 -289 46z m107 -344
c7 -24 22 -75 33 -114 21 -72 47 -162 57 -203 11 -43 -11 -52 -122 -52 -129 0
-135 4 -111 93 9 34 22 82 27 107 6 25 15 50 19 55 4 6 13 35 19 65 13 61 36
103 54 97 7 -2 17 -23 24 -48z"/>
<path d="M20917 12903 c-82 -22 -133 -80 -171 -199 -16 -49 -32 -93 -35 -99
-3 -5 -11 -28 -18 -50 -32 -109 -46 -152 -98 -300 -31 -88 -61 -178 -66 -200
-5 -22 -13 -49 -18 -60 -13 -29 -51 -187 -51 -212 0 -38 63 -91 117 -99 157
-26 222 10 248 137 19 91 31 118 57 128 13 4 94 6 181 3 l158 -5 14 -28 c8
-15 22 -56 29 -90 18 -75 59 -130 107 -142 19 -5 71 -7 117 -5 73 4 86 8 108
30 38 38 37 48 -40 313 -54 185 -68 230 -76 245 -4 9 -11 31 -14 50 -4 19 -13
53 -21 75 -7 22 -23 74 -35 115 -69 230 -112 334 -152 367 -22 19 -151 43
-221 42 -34 -1 -88 -8 -120 -16z m158 -313 c8 -15 21 -56 29 -91 28 -121 44
-184 56 -217 7 -18 9 -43 6 -56 -6 -23 -11 -24 -111 -31 -117 -8 -135 -2 -135
46 0 16 7 46 15 66 8 21 19 56 24 78 36 145 75 250 91 240 6 -3 17 -19 25 -35z"/>
<path d="M30724 12835 c-2 -18 3 -25 17 -25 22 0 23 4 9 31 -15 26 -25 24 -26
-6z"/>
<path d="M31194 12845 c-10 -24 -1 -33 23 -24 15 5 21 14 17 24 -8 19 -33 20
-40 0z"/>
<path d="M31301 12621 c-21 -19 -31 -36 -28 -48 4 -16 6 -15 12 5 4 12 15 22
25 22 32 0 50 11 50 31 0 27 -21 23 -59 -10z"/>
<path d="M31190 12550 c0 -5 5 -10 10 -10 6 0 10 5 10 10 0 6 -4 10 -10 10 -5
0 -10 -4 -10 -10z"/>
<path d="M18705 12520 c-22 -11 -53 -24 -69 -30 l-29 -10 59 -41 c33 -23 74
-55 91 -72 18 -17 36 -27 40 -24 4 4 -1 29 -10 55 -9 26 -17 61 -17 79 0 34
-9 63 -19 63 -3 -1 -24 -10 -46 -20z"/>
<path d="M23098 12473 c7 -3 16 -2 19 1 4 3 -2 6 -13 5 -11 0 -14 -3 -6 -6z"/>
<path d="M18810 12310 c0 -5 5 -10 11 -10 5 0 7 5 4 10 -3 6 -8 10 -11 10 -2
0 -4 -4 -4 -10z"/>
<path d="M18840 12266 c0 -7 7 -27 15 -42 8 -16 15 -41 15 -55 0 -41 21 -52
82 -44 29 4 56 9 61 12 8 5 -46 53 -60 53 -6 0 -31 20 -57 45 -53 50 -56 51
-56 31z"/>
<path d="M5430 11968 c-47 -49 -50 -56 -46 -93 14 -117 23 -145 54 -176 36
-36 97 -69 126 -69 11 0 30 -10 43 -22 19 -17 28 -19 54 -12 l32 9 -31 32
c-26 29 -29 37 -22 67 7 31 -9 92 -28 106 -15 11 -42 60 -42 77 0 16 -75 133
-86 133 -2 0 -27 -24 -54 -52z"/>
<path d="M25750 11643 c-8 -4 -33 -21 -54 -40 -22 -18 -46 -33 -53 -33 -7 0
-13 -4 -13 -9 0 -14 -102 -41 -168 -46 -32 -2 -106 -7 -165 -11 -92 -5 -113
-10 -145 -32 -20 -13 -49 -29 -64 -34 -29 -10 -45 -37 -25 -42 54 -15 138 -28
227 -36 58 -5 128 -16 155 -24 28 -9 63 -18 78 -21 15 -3 32 -15 38 -28 5 -12
26 -32 44 -45 19 -12 35 -29 35 -37 0 -8 6 -15 13 -15 7 0 35 -22 61 -49 32
-33 60 -51 83 -56 53 -10 54 -2 2 53 -26 27 -89 121 -89 132 0 5 -4 10 -9 10
-5 0 -13 9 -16 20 -3 11 -13 27 -21 35 -8 8 -18 30 -21 49 -5 32 -3 34 30 45
20 7 44 12 54 13 44 1 326 -68 418 -102 70 -26 110 -33 146 -25 50 11 35 41
-36 72 -150 64 -205 96 -205 118 0 25 -43 60 -87 69 -17 4 -37 14 -44 22 -6 8
-19 14 -28 14 -9 0 -25 7 -35 15 -11 8 -29 12 -42 9 -12 -3 -25 -1 -28 5 -8
12 -13 12 -36 4z"/>
<path d="M26306 11501 c-3 -5 9 -11 27 -14 17 -2 58 -11 90 -18 50 -12 59 -11
67 1 22 35 12 40 -84 40 -52 0 -97 -4 -100 -9z"/>
<path d="M13847 11490 c-32 -4 -68 -12 -80 -17 -117 -52 -148 -73 -213 -137
-107 -107 -150 -214 -156 -385 -2 -61 -7 -99 -16 -107 -7 -8 -34 -20 -60 -28
-120 -38 -279 -113 -364 -173 -26 -18 -50 -33 -54 -33 -33 0 -354 -321 -354
-354 0 -7 -40 -67 -51 -76 -6 -5 -85 -167 -100 -205 -32 -80 -61 -182 -79
-285 -27 -151 -18 -469 16 -585 29 -98 46 -151 65 -192 10 -23 19 -44 19 -47
0 -14 109 -188 151 -241 88 -112 260 -261 392 -341 123 -74 282 -155 391 -200
33 -14 70 -29 81 -34 11 -4 34 -13 50 -18 17 -6 55 -20 85 -32 30 -11 93 -34
140 -50 47 -16 97 -33 110 -38 14 -5 59 -20 100 -32 41 -12 89 -28 107 -36 17
-8 38 -14 47 -14 8 0 30 -6 48 -14 18 -8 58 -24 88 -37 30 -12 64 -31 75 -41
19 -18 19 -18 -2 -39 -28 -28 -137 -48 -268 -48 -103 -1 -326 23 -354 38 -9 5
-35 12 -59 16 -24 4 -56 13 -70 21 -15 8 -32 14 -39 14 -17 0 -121 45 -278
120 -171 82 -174 83 -295 83 -113 0 -124 -3 -240 -56 -148 -67 -281 -240 -345
-447 -22 -69 -30 -253 -17 -340 50 -314 248 -547 608 -715 41 -19 79 -35 85
-35 6 0 25 -6 42 -14 41 -18 170 -56 192 -56 37 0 156 -33 170 -47 8 -8 15
-27 15 -43 0 -60 54 -188 109 -260 149 -194 370 -269 756 -257 328 10 473 99
568 347 24 64 46 202 40 248 -5 39 -4 40 28 47 19 4 39 11 44 15 6 4 26 13 45
18 226 68 474 212 613 357 212 220 319 429 384 750 24 123 24 396 -1 510 -24
111 -57 228 -67 240 -5 5 -9 15 -9 23 0 25 -81 185 -136 268 -140 211 -318
372 -579 521 -78 45 -337 173 -351 173 -5 1 -27 9 -49 20 -22 11 -47 19 -55
20 -9 0 -20 4 -25 9 -6 5 -26 14 -45 19 -19 6 -66 22 -105 35 -38 14 -104 35
-145 47 -41 12 -91 28 -110 35 -19 7 -70 23 -112 36 -91 28 -131 53 -108 69
20 13 416 13 495 0 134 -22 284 -58 330 -79 116 -54 289 -75 415 -51 219 42
411 270 450 537 54 371 -108 665 -465 846 -134 68 -271 117 -405 144 -33 7
-50 30 -50 68 0 48 -39 162 -78 230 -71 121 -240 256 -352 280 -19 4 -41 12
-48 18 -7 6 -94 14 -195 18 -217 9 -293 9 -370 -1z m508 -269 c212 -55 295
-172 295 -415 0 -120 6 -136 49 -136 14 0 62 -7 106 -16 272 -53 429 -116 565
-223 56 -44 72 -62 115 -127 57 -85 75 -153 75 -275 0 -197 -71 -342 -202
-411 -72 -38 -216 -28 -333 22 -55 24 -216 63 -360 86 -141 24 -452 29 -552
10 -86 -16 -192 -61 -233 -99 -72 -66 -103 -155 -81 -235 24 -92 95 -138 331
-214 283 -92 426 -139 445 -148 11 -5 70 -29 130 -54 153 -62 182 -74 245
-105 149 -74 245 -134 366 -227 82 -64 208 -190 241 -241 9 -15 20 -30 24 -33
14 -12 78 -132 111 -210 49 -117 66 -184 83 -334 13 -114 13 -145 0 -267 -9
-76 -22 -154 -30 -173 -8 -20 -15 -43 -15 -52 0 -33 -86 -212 -144 -299 -72
-107 -237 -259 -361 -332 -42 -24 -163 -82 -220 -105 -88 -36 -266 -88 -300
-88 -50 0 -55 -18 -55 -200 0 -180 -11 -235 -61 -298 -57 -73 -168 -101 -394
-102 -276 0 -429 69 -499 225 -24 52 -46 174 -46 248 0 64 -13 75 -105 87
-268 34 -527 122 -703 240 -79 53 -181 169 -220 251 -32 69 -62 196 -62 263 0
50 24 157 47 211 46 106 136 199 222 230 95 33 156 18 401 -97 121 -57 159
-72 245 -98 39 -12 84 -25 100 -30 17 -5 64 -14 105 -20 41 -6 102 -16 135
-21 146 -22 452 4 530 45 17 9 34 16 38 16 4 0 32 18 62 40 61 45 97 101 115
177 26 114 -44 225 -185 292 -113 53 -111 53 -325 122 -69 22 -140 47 -158 55
-18 8 -40 14 -48 14 -9 0 -30 6 -47 14 -18 7 -57 22 -87 34 -274 103 -258 96
-412 171 -210 102 -323 177 -442 294 -95 95 -154 181 -210 307 -46 104 -86
316 -86 460 0 139 39 345 86 450 104 233 234 382 466 533 31 20 60 37 64 37 4
0 15 6 23 13 39 33 367 157 414 157 29 0 37 36 37 172 0 265 41 364 168 410
71 25 439 25 537 -1z"/>
<path d="M24130 10950 c-141 -18 -271 -44 -301 -60 -10 -6 -26 -10 -36 -10
-10 -1 -36 -9 -58 -20 -22 -11 -45 -19 -50 -20 -20 0 -251 -119 -316 -161
-127 -84 -226 -173 -331 -299 -202 -242 -299 -447 -374 -790 -28 -125 -28
-539 0 -655 40 -170 78 -278 142 -405 122 -246 265 -410 479 -554 216 -145
389 -210 670 -252 119 -18 385 -24 498 -11 l68 8 -16 -24 c-10 -16 -39 -31
-87 -46 -40 -12 -83 -27 -96 -32 -44 -17 -217 -31 -312 -24 -88 6 -185 24
-320 60 -240 62 -349 59 -499 -15 -98 -48 -204 -186 -249 -320 -62 -188 -47
-444 36 -610 33 -67 125 -182 185 -230 64 -52 244 -146 342 -178 101 -34 167
-52 184 -52 9 0 42 -7 73 -15 30 -8 151 -21 268 -30 215 -17 386 -12 590 15
397 54 734 193 1010 416 130 105 218 201 353 384 32 42 137 216 137 225 0 2
18 43 41 92 68 147 83 185 114 283 76 245 96 352 145 752 15 118 8 640 -9 743
-27 159 -54 304 -68 360 -26 104 -54 199 -69 232 -8 17 -14 36 -14 42 0 10 -7
27 -52 131 -34 78 -52 112 -102 200 -94 161 -152 237 -285 371 -247 247 -527
395 -891 472 -222 47 -557 59 -800 27z m660 -249 c328 -65 520 -145 715 -296
149 -116 263 -249 392 -460 38 -62 105 -214 148 -335 103 -291 150 -707 126
-1121 -7 -121 -17 -246 -22 -277 -5 -31 -16 -95 -24 -142 -81 -473 -249 -837
-510 -1103 -181 -185 -346 -298 -580 -398 -69 -29 -194 -65 -335 -94 -175 -37
-686 -43 -855 -10 -38 7 -88 16 -110 20 -75 12 -200 57 -304 108 -87 43 -190
143 -238 232 l-38 70 0 150 c0 135 2 156 25 215 34 92 104 160 185 183 55 15
68 15 150 2 50 -8 113 -22 140 -29 196 -57 380 -76 565 -58 235 22 448 111
584 246 77 76 176 232 176 277 0 8 4 19 10 25 17 17 44 214 31 227 -9 9 -16 9
-29 0 -27 -19 -174 -90 -202 -97 -14 -4 -34 -11 -45 -16 -43 -19 -156 -43
-270 -56 -410 -47 -781 30 -1071 222 -82 54 -231 206 -292 296 -195 293 -276
730 -202 1098 39 190 167 469 279 605 54 66 205 205 272 251 106 74 293 174
323 174 8 0 17 4 21 9 3 5 20 12 38 16 17 3 52 13 77 20 74 23 182 45 266 55
93 10 539 4 604 -9z"/>
<path d="M24350 9791 c-162 -36 -290 -180 -325 -366 -19 -102 -19 -157 1 -242
24 -108 60 -171 140 -248 73 -71 150 -109 265 -129 92 -17 98 -17 190 3 52 11
112 26 135 35 59 22 163 85 206 127 38 36 38 36 38 116 0 89 -23 262 -46 338
-45 151 -137 272 -254 334 -62 33 -70 34 -190 37 -69 2 -141 -1 -160 -5z m248
-253 c97 -60 137 -155 137 -328 l0 -105 -42 -22 c-92 -48 -242 -53 -313 -10
-42 26 -64 50 -91 101 -31 57 -31 217 0 276 27 52 37 63 87 89 56 30 173 30
222 -1z"/>
<path d="M27609 10129 c-9 -9 -19 -28 -23 -43 -3 -14 -10 -26 -15 -26 -5 0
-12 -13 -16 -29 -3 -16 -13 -35 -21 -42 -8 -6 -14 -22 -14 -34 0 -12 -7 -28
-15 -35 -8 -7 -15 -20 -15 -29 0 -9 -9 -29 -20 -46 -11 -16 -20 -37 -20 -46 0
-9 -7 -19 -15 -23 -8 -3 -15 -14 -15 -24 0 -11 -6 -25 -14 -31 -8 -7 -18 -26
-21 -42 -4 -16 -11 -29 -15 -29 -27 0 -30 -110 -3 -121 12 -6 53 -66 53 -79 0
-6 7 -13 15 -16 8 -4 15 -11 15 -16 0 -5 16 -29 35 -52 19 -24 35 -48 35 -55
0 -6 7 -11 15 -11 9 0 19 -8 22 -17 4 -10 13 -24 20 -31 7 -7 13 -22 13 -33 0
-10 7 -19 15 -19 9 0 18 -7 21 -15 4 -8 10 -15 16 -15 10 0 3 30 -18 74 -15
31 -19 66 -6 66 7 0 62 -65 62 -74 0 -3 11 -17 24 -31 21 -22 28 -25 45 -15
12 6 21 16 21 22 0 6 7 19 14 27 12 13 16 78 22 336 l7 320 -44 55 c-24 30
-48 61 -54 68 -5 7 -18 21 -27 30 -10 9 -18 20 -18 24 0 4 -10 22 -22 40 -21
31 -24 32 -39 17z"/>
<path d="M27660 9138 c0 -10 4 -18 10 -18 5 0 12 -11 16 -25 7 -30 24 -33 24
-5 0 11 5 20 10 20 6 0 10 10 10 23 0 20 -5 23 -35 23 -26 -1 -35 -5 -35 -18z"/>
<path d="M6593 8354 c-3 -8 0 -20 5 -27 9 -11 53 -91 119 -219 14 -28 16 -28
112 -28 53 0 123 -5 155 -11 36 -6 62 -7 68 -1 8 8 -5 51 -24 77 -93 123 -106
143 -114 166 -4 12 -25 18 -86 22 -44 4 -86 11 -92 15 -6 5 -39 12 -74 15 -49
4 -65 2 -69 -9z"/>
<path d="M14788 5442 c-3 -9 -3 -88 0 -175 l5 -157 28 0 29 0 0 141 c0 109 -4
149 -16 175 -18 37 -39 44 -46 16z"/>
<path d="M14420 5418 c0 -18 7 -42 15 -52 8 -11 15 -28 15 -39 0 -10 6 -33 14
-50 18 -40 44 -120 57 -172 6 -22 14 -44 20 -49 5 -6 9 -27 9 -47 0 -43 11
-54 39 -40 16 9 17 16 10 58 -15 80 -38 161 -63 226 -13 34 -32 84 -42 111
-17 46 -48 86 -66 86 -4 0 -8 -15 -8 -32z"/>
<path d="M25056 5434 c-8 -21 -8 -223 0 -263 4 -17 13 -31 20 -31 8 0 14 -6
15 -12 1 -7 5 3 9 22 5 19 9 88 9 152 0 93 -3 120 -15 133 -20 19 -30 19 -38
-1z"/>
<path d="M25360 5278 c0 -160 -2 -178 -20 -201 -11 -14 -20 -30 -20 -36 0 -6
-4 -11 -9 -11 -5 0 -17 -8 -26 -17 -10 -9 -33 -19 -54 -23 l-36 -7 29 -8 c21
-6 38 -3 63 10 18 10 33 22 33 26 0 4 12 21 26 36 40 43 44 63 44 227 0 124
-3 156 -15 166 -13 11 -15 -8 -15 -162z"/>
<path d="M13607 5434 c-8 -8 1 -59 18 -104 7 -19 22 -69 34 -110 12 -41 29
-96 37 -122 9 -26 14 -71 13 -100 -3 -53 -3 -53 28 -56 48 -5 56 20 38 110
-34 169 -73 277 -129 361 -18 27 -28 32 -39 21z"/>
<path d="M15237 5434 c-4 -4 -7 -69 -7 -144 0 -132 1 -137 25 -160 34 -32 36
-22 33 155 -3 142 -4 150 -23 153 -12 2 -24 0 -28 -4z"/>
<path d="M15540 5286 c0 -84 -3 -167 -6 -184 -8 -38 -76 -112 -104 -112 -11 0
-20 -7 -20 -15 0 -19 59 -20 109 -2 68 24 75 45 79 252 5 194 1 215 -39 215
-18 0 -19 -10 -19 -154z"/>
<path d="M15870 5416 c0 -13 11 -47 23 -76 l24 -54 11 34 c17 46 15 63 -9 94
-26 33 -49 34 -49 2z"/>
<path d="M16207 5433 c-4 -3 -7 -109 -7 -235 0 -248 0 -249 54 -228 l28 10 -6
128 c-9 197 -21 299 -35 316 -15 17 -24 20 -34 9z"/>
<path d="M16787 5434 c-4 -4 -7 -104 -7 -221 1 -117 -1 -217 -4 -222 -11 -18
24 -35 51 -25 l27 9 -3 110 c-2 61 -6 164 -10 230 -6 111 -8 120 -26 123 -12
2 -24 0 -28 -4z"/>
<path d="M18974 5427 c-9 -24 1 -310 11 -314 6 -1 17 2 25 7 12 7 15 36 15
155 0 119 -3 147 -15 155 -20 13 -30 12 -36 -3z"/>
<path d="M21402 5410 c-13 -36 -42 -45 -126 -37 -76 7 -104 -7 -80 -41 8 -12
19 -22 24 -22 5 0 21 -5 37 -12 50 -20 128 -47 138 -48 5 0 4 5 -3 12 -19 19
-15 41 7 35 40 -10 69 94 35 127 -20 21 -20 21 -32 -14z"/>
<path d="M21915 5425 c-3 -8 -7 -22 -10 -30 -6 -19 10 -28 35 -20 22 7 26 35
8 53 -16 16 -28 15 -33 -3z"/>
<path d="M22490 5220 c0 -187 -2 -222 -15 -226 -30 -12 -14 -25 28 -22 l42 3
3 175 c2 96 0 194 -3 217 -6 41 -26 73 -46 73 -5 0 -9 -91 -9 -220z"/>
<path d="M23430 5418 c0 -13 6 -35 14 -50 8 -15 17 -41 21 -58 4 -17 13 -43
21 -58 8 -15 14 -37 14 -48 0 -12 6 -27 14 -33 13 -11 28 -95 30 -166 1 -26 5
-30 34 -33 35 -4 41 10 17 42 -7 10 -21 53 -30 95 -23 102 -50 206 -70 261
-22 63 -65 94 -65 48z"/>
<path d="M16520 5420 c0 -5 4 -10 9 -10 5 0 12 -11 15 -25 9 -37 47 -96 57
-89 24 15 -5 100 -41 119 -34 18 -40 18 -40 5z"/>
<path d="M18610 5407 c0 -13 4 -27 9 -32 6 -6 14 -28 20 -50 5 -22 14 -53 20
-70 25 -71 51 -174 57 -228 6 -49 11 -61 31 -70 38 -17 51 4 30 48 -9 19 -23
67 -32 107 -22 105 -75 265 -97 293 -24 31 -38 32 -38 2z"/>
<path d="M23015 5400 c-17 -26 -26 -29 -75 -32 l-55 -3 -7 -70 c-3 -38 -8
-128 -10 -198 l-4 -128 34 3 34 3 5 175 c2 96 9 179 14 184 5 6 28 11 51 12
24 1 46 2 50 3 17 2 29 41 18 61 -15 28 -32 25 -55 -10z"/>
<path d="M22250 5408 c0 -18 43 -98 52 -98 16 0 7 45 -14 77 -24 34 -38 42
-38 21z"/>
<path d="M24777 5403 c-14 -13 -6 -30 18 -41 33 -15 32 -15 38 7 8 31 -34 56
-56 34z"/>
<path d="M19927 5315 c-6 -83 -31 -135 -74 -154 -13 -6 -23 -15 -23 -21 0 -6
-30 -10 -74 -10 l-74 0 -5 -57 c-3 -32 -9 -70 -12 -84 -5 -21 -3 -27 12 -31
33 -9 53 15 53 63 0 53 22 89 55 89 26 0 141 46 166 67 20 17 52 118 44 141
-3 10 -18 31 -34 46 l-28 27 -6 -76z"/>
<path d="M24078 5314 c-3 -49 -9 -69 -21 -76 -9 -5 -17 -15 -17 -23 0 -7 -9
-16 -19 -20 -24 -7 -19 -26 17 -64 l24 -26 -6 30 c-7 32 12 83 39 105 19 16
19 98 1 123 -12 15 -14 10 -18 -49z"/>
<path d="M17077 5348 c-52 -47 -58 -161 -11 -217 31 -37 65 -45 108 -27 28 12
37 23 46 57 17 61 5 142 -27 179 -31 37 -78 40 -116 8z"/>
<path d="M19682 5361 c-8 -5 -12 -23 -10 -47 3 -36 5 -39 33 -39 28 0 30 3 33
39 3 37 -8 56 -33 56 -5 0 -16 -4 -23 -9z"/>
<path d="M20184 5357 c-3 -9 -4 -30 -2 -48 2 -26 9 -34 30 -40 42 -11 70 14
66 59 -3 36 -4 37 -46 40 -30 2 -44 -1 -48 -11z"/>
<path d="M24577 5363 c-13 -12 26 -43 53 -43 15 0 35 8 44 19 16 17 15 19 -15
25 -41 8 -74 8 -82 -1z"/>
<path d="M21710 5340 c0 -18 7 -20 70 -20 59 0 71 3 80 20 10 19 8 20 -70 20
-73 0 -80 -2 -80 -20z"/>
<path d="M23810 5320 c0 -42 13 -50 49 -30 45 23 34 70 -15 70 -33 0 -34 -1
-34 -40z"/>
<path d="M14286 5305 c-11 -31 -7 -97 7 -93 15 5 22 72 9 94 -8 15 -10 15 -16
-1z"/>
<path d="M13467 5281 c-22 -44 -22 -61 2 -61 22 0 29 23 21 65 l-6 30 -17 -34z"/>
<path d="M18465 5270 c-7 -31 -1 -50 16 -50 12 0 12 67 0 74 -5 4 -12 -7 -16
-24z"/>
<path d="M23288 5281 c-18 -26 -15 -41 7 -41 19 0 23 11 16 40 l-7 24 -16 -23z"/>
<path d="M15807 5190 c-3 -8 -8 -51 -11 -94 -4 -54 -11 -85 -23 -98 -22 -24
-4 -43 31 -34 29 7 66 43 66 63 0 8 -7 28 -17 46 -9 18 -22 55 -28 82 -7 29
-14 44 -18 35z"/>
<path d="M15997 5162 c-22 -49 -22 -63 1 -55 24 9 32 23 32 61 0 43 -12 41
-33 -6z"/>
<path d="M16476 5178 c-3 -13 -6 -62 -6 -109 0 -95 12 -120 44 -96 15 11 17
23 13 68 -5 53 -27 143 -39 154 -3 3 -8 -5 -12 -17z"/>
<path d="M22187 5180 c-3 -8 -8 -59 -10 -112 -6 -101 0 -115 35 -96 14 7 17
18 13 61 -6 71 -31 166 -38 147z"/>
<path d="M24817 5136 c-10 -73 -57 -145 -94 -146 -27 0 -11 -20 16 -20 49 0
88 19 106 54 16 30 17 39 5 82 -20 75 -26 81 -33 30z"/>
<path d="M21704 5145 c-13 -34 20 -42 120 -29 36 5 46 11 46 25 0 17 -9 19
-80 19 -61 0 -82 -3 -86 -15z"/>
<path d="M23809 5060 c-1 -33 -2 -66 -3 -72 -1 -9 11 -12 33 -10 43 3 51 10
28 23 -11 7 -17 22 -17 44 0 22 -8 43 -20 55 l-20 20 -1 -60z"/>
<path d="M23277 5078 c-29 -8 -41 -18 -51 -43 -8 -18 -19 -36 -25 -39 -19 -12
-1 -26 34 -26 30 0 36 5 55 45 12 25 29 52 37 60 17 18 8 18 -50 3z"/>
<path d="M13386 5024 c-33 -59 -33 -72 1 -80 29 -8 52 3 67 32 6 10 19 32 29
48 23 33 12 46 -40 46 -27 0 -35 -6 -57 -46z"/>
<path d="M14238 5063 c-10 -2 -18 -12 -18 -22 0 -9 -7 -27 -16 -40 -14 -19
-14 -25 -3 -32 23 -15 62 0 104 41 21 22 37 41 35 44 -8 7 -84 14 -102 9z"/>
<path d="M18386 5015 c-32 -70 -32 -75 -2 -75 15 0 30 10 41 28 10 15 29 39
43 54 14 15 24 30 21 32 -2 2 -20 7 -40 11 -37 7 -37 7 -63 -50z"/>
<path d="M24080 5038 c0 -14 -3 -33 -6 -42 -8 -20 17 -30 53 -21 l27 6 -26 22
c-14 12 -31 31 -37 42 -10 19 -10 18 -11 -7z"/>
<path d="M19172 5010 c-12 -16 -22 -34 -22 -40 0 -12 59 -13 78 -1 19 11 12
41 -14 57 -18 13 -22 11 -42 -16z"/>
<path d="M14972 5007 c-40 -28 -36 -41 15 -45 54 -4 72 16 40 46 l-23 22 -32
-23z"/>
<path d="M5950 4683 c0 -42 38 -233 49 -247 5 -6 12 -45 16 -86 3 -41 13 -86
21 -102 8 -15 14 -42 14 -60 0 -18 9 -50 20 -71 12 -21 20 -56 20 -82 0 -32 4
-45 14 -45 8 0 14 11 14 25 0 36 9 41 32 20 13 -12 20 -14 20 -5 0 10 3 10 15
0 12 -10 16 -8 24 11 5 13 7 27 4 32 -9 15 11 6 48 -24 32 -25 40 -28 45 -15
3 8 3 19 0 24 -9 15 21 34 43 27 14 -4 24 0 33 14 18 29 28 26 28 -8 0 -32 19
-45 64 -43 17 0 43 -10 63 -25 27 -21 36 -24 43 -13 14 22 40 3 40 -29 0 -16
5 -33 10 -36 19 -12 10 -25 -14 -19 -19 4 -28 -1 -47 -28 -41 -59 -59 -63 -59
-13 0 32 -2 35 -29 35 -27 0 -30 4 -33 35 -3 40 -21 36 -32 -7 -5 -23 -3 -28
13 -28 15 0 21 -8 23 -32 2 -26 8 -34 28 -37 37 -5 67 -40 75 -88 4 -24 12
-46 17 -49 7 -5 9 2 6 19 -3 16 0 31 9 39 11 9 22 3 53 -27 21 -21 40 -49 42
-63 4 -32 28 -41 35 -14 3 13 10 19 20 15 11 -4 14 0 12 18 -4 31 7 49 31 49
25 0 33 15 21 39 -10 17 -7 20 20 26 19 4 41 2 56 -6 30 -16 39 -5 49 60 l7
44 58 -6 c52 -4 59 -3 59 13 0 10 13 23 31 31 28 11 33 10 45 -5 14 -19 34
-14 34 9 0 7 -8 21 -17 31 -19 18 -24 54 -8 54 6 0 10 -6 10 -12 0 -7 11 -13
25 -13 21 0 26 5 28 33 3 33 11 37 65 33 19 -2 27 2 27 13 0 9 -7 16 -15 16
-9 0 -18 6 -21 14 -3 8 -21 17 -40 20 -20 4 -34 13 -34 21 0 10 -10 15 -30 15
-18 0 -33 6 -36 15 -4 8 -16 15 -28 15 -11 0 -34 9 -51 20 -16 11 -40 20 -53
20 -12 0 -25 7 -28 15 -4 9 -19 15 -40 15 -22 0 -37 6 -40 15 -4 9 -19 15 -40
15 -18 0 -37 6 -41 14 -4 7 -21 15 -36 18 -39 7 -32 -23 8 -36 120 -36 139
-58 84 -99 -47 -34 -69 -30 -69 14 0 20 -4 29 -12 26 -7 -2 -12 -14 -10 -25 3
-19 -15 -61 -41 -99 -15 -21 -38 -3 -35 27 1 15 -3 34 -9 41 -19 24 -19 47 1
62 12 9 17 20 13 31 -9 24 -36 19 -47 -8 -5 -14 -19 -30 -32 -37 -30 -16 -38
-28 -38 -61 0 -37 -17 -36 -25 2 -4 17 -11 30 -17 30 -6 0 -4 8 5 18 10 10 17
25 17 33 0 8 9 20 20 27 27 17 25 30 -5 38 -20 5 -25 12 -25 39 0 18 7 38 15
45 25 21 18 40 -15 40 -18 0 -33 6 -36 15 -4 8 -16 15 -29 15 -12 0 -32 9 -45
20 -13 11 -31 20 -40 20 -10 0 -23 7 -30 15 -7 8 -19 15 -27 15 -13 0 -33 8
-140 56 -18 8 -48 20 -65 28 -18 7 -54 23 -79 35 -25 11 -53 21 -61 21 -8 0
-19 5 -26 12 -9 9 -12 5 -12 -19z m490 -343 c0 -5 -4 -10 -10 -10 -5 0 -10 5
-10 10 0 6 5 10 10 10 6 0 10 -4 10 -10z m100 -30 c0 -5 -5 -10 -11 -10 -5 0
-7 5 -4 10 3 6 8 10 11 10 2 0 4 -4 4 -10z m-33 -174 c-5 -15 -37 -20 -49 -8
-6 6 -8 15 -4 20 8 13 58 2 53 -12z m-307 -36 c0 -5 -2 -10 -4 -10 -3 0 -8 5
-11 10 -3 6 -1 10 4 10 6 0 11 -4 11 -10z m953 -10 c-8 -31 -20 -33 -25 -5 -4
19 -1 25 12 25 13 0 17 -6 13 -20z m-338 -109 c3 -5 1 -12 -5 -16 -5 -3 -10 1
-10 9 0 18 6 21 15 7z"/>
<path d="M32220 4670 c0 -5 9 -10 20 -10 11 0 20 5 20 10 0 6 -9 10 -20 10
-11 0 -20 -4 -20 -10z"/>
<path d="M16495 4641 c-3 -5 -9 -30 -14 -55 -8 -46 -8 -46 19 -46 23 0 30 5
35 29 11 53 -18 107 -40 72z"/>
<path d="M32250 4614 c-12 -36 -10 -148 3 -161 4 -3 12 -2 19 5 7 7 17 8 29 1
14 -7 21 -5 31 11 9 14 24 20 50 20 44 0 56 14 32 41 -17 18 -16 19 14 19 18
0 32 -4 32 -8 0 -4 13 -23 29 -42 25 -30 31 -33 45 -21 12 10 23 11 47 2 18
-6 44 -11 58 -10 24 1 24 2 -6 10 -18 5 -33 14 -33 18 0 5 -13 12 -30 16 -16
4 -30 13 -30 21 0 9 -11 14 -29 14 -16 0 -34 7 -41 15 -7 8 -25 15 -40 15 -20
0 -29 6 -33 21 -5 18 -11 21 -36 16 -26 -6 -31 -3 -31 13 0 16 -7 20 -34 20
-31 0 -36 -4 -46 -36z m120 -48 c0 -7 -7 -13 -15 -13 -15 0 -20 18 -9 30 9 9
24 -2 24 -17z m-70 -16 c0 -5 -4 -10 -10 -10 -5 0 -10 5 -10 10 0 6 5 10 10
10 6 0 10 -4 10 -10z"/>
<path d="M14325 4628 c-2 -7 -6 -114 -7 -238 -2 -124 -6 -232 -8 -240 -4 -11
4 -16 27 -18 47 -5 62 23 51 95 -4 32 -7 123 -6 203 1 80 -2 154 -5 165 -9 27
-46 50 -52 33z"/>
<path d="M15947 4633 c-4 -3 -7 -104 -7 -224 0 -120 -4 -229 -10 -243 -9 -25
-8 -26 25 -26 18 0 37 6 42 13 13 20 14 366 1 422 -12 56 -32 78 -51 58z"/>
<path d="M16716 4614 c-3 -9 -6 -106 -6 -216 0 -183 -2 -202 -20 -228 -11 -15
-17 -30 -13 -34 13 -13 54 -5 72 13 17 17 19 36 19 217 0 149 -4 206 -14 226
-18 34 -30 42 -38 22z"/>
<path d="M19317 4623 c-3 -5 -6 -99 -6 -209 0 -155 -3 -207 -15 -236 -15 -36
-15 -36 10 -42 14 -4 34 -4 44 -1 17 5 18 19 15 213 -2 114 -4 214 -4 223 -1
23 -36 65 -44 52z"/>
<path d="M20283 4604 c-28 -32 -29 -46 -2 -102 31 -63 44 -42 33 52 l-9 75
-22 -25z"/>
<path d="M23129 4608 c-1 -53 3 -303 5 -306 2 -1 11 0 20 4 14 5 16 26 16 159
0 130 -2 154 -16 159 -23 9 -24 8 -25 -16z"/>
<path d="M18435 4611 c-8 -14 2 -66 20 -101 13 -26 29 -80 47 -165 6 -27 15
-53 20 -56 16 -10 26 -77 18 -114 -7 -31 -5 -35 11 -35 11 0 30 7 43 16 l24
15 -23 59 c-13 32 -26 78 -30 102 -4 24 -22 82 -41 130 -19 49 -34 94 -34 101
0 20 -47 61 -55 48z"/>
<path d="M19079 4618 c-1 -2 -3 -14 -4 -28 -1 -14 -4 -32 -6 -40 -3 -10 3 -15
16 -15 16 0 21 8 23 43 2 33 0 42 -12 42 -9 0 -17 -1 -17 -2z"/>
<path d="M21682 4608 c5 -15 37 -18 41 -3 1 6 -9 12 -22 13 -16 3 -22 -1 -19
-10z"/>
<path d="M22248 4580 c-4 -42 2 -49 40 -42 20 4 22 8 16 36 -12 59 -50 63 -56
6z"/>
<path d="M15393 4593 c-13 -9 -23 -22 -23 -29 0 -11 -23 -14 -106 -14 -103 0
-105 -1 -102 -22 3 -20 8 -21 70 -19 37 1 82 9 100 17 62 29 103 53 106 62 5
17 -22 20 -45 5z"/>
<path d="M15713 4603 c-7 -2 -13 -11 -13 -18 0 -24 51 -116 61 -110 12 8 11
51 -2 98 -9 35 -19 42 -46 30z"/>
<path d="M23805 4553 c4 -21 13 -51 20 -68 8 -16 16 -38 19 -47 3 -10 10 -18
16 -18 17 0 11 63 -10 100 -10 19 -22 43 -26 53 -12 32 -25 18 -19 -20z"/>
<path d="M21466 4557 c-29 -21 -5 -54 47 -65 52 -11 57 -8 57 28 0 25 -5 31
-37 39 -48 14 -46 14 -67 -2z"/>
<path d="M24417 4534 c-4 -22 -7 -53 -7 -69 0 -20 -11 -42 -30 -63 -33 -36
-38 -60 -15 -68 8 -4 15 -12 15 -20 0 -8 5 -14 10 -14 6 0 10 5 10 11 0 6 13
39 29 73 26 54 29 66 20 109 -13 73 -25 87 -32 41z"/>
<path d="M14596 4551 c-2 -3 -6 -60 -8 -126 l-3 -120 25 0 25 0 2 108 c1 62 6
114 12 121 9 11 5 15 -19 18 -17 3 -33 2 -34 -1z"/>
<path d="M14895 4436 c0 -104 -3 -127 -17 -143 -10 -11 -18 -25 -18 -31 0 -15
-84 -82 -103 -82 -21 0 -30 -17 -13 -23 20 -8 66 6 117 35 57 32 89 89 90 164
1 32 2 77 2 99 1 28 -6 50 -23 73 -13 17 -26 32 -30 32 -3 0 -6 -56 -5 -124z"/>
<path d="M19608 4549 c-10 -5 -25 -34 -34 -64 -12 -45 -13 -65 -4 -107 6 -29
14 -59 19 -66 11 -18 47 -10 42 9 -11 41 -12 121 -1 153 6 20 22 44 36 55 20
16 21 20 8 25 -22 9 -46 7 -66 -5z"/>
<path d="M22030 4553 c-34 -10 -53 -54 -54 -128 -1 -59 3 -77 18 -94 33 -37
41 -26 38 49 -3 56 1 79 18 115 12 25 27 45 33 45 7 0 5 5 -3 10 -16 10 -25
11 -50 3z"/>
<path d="M22540 4542 c-19 -15 -24 -31 -27 -78 -5 -74 8 -139 27 -139 11 0 17
20 22 84 5 62 13 92 28 113 11 15 16 28 11 28 -5 0 -16 2 -24 5 -7 3 -24 -3
-37 -13z"/>
<path d="M24147 4553 c-2 -4 -2 -25 0 -45 5 -35 7 -38 39 -38 30 0 34 3 40 35
3 20 5 37 3 39 -10 8 -78 16 -82 9z"/>
<path d="M16333 4538 c-4 -7 -6 -83 -5 -168 3 -125 0 -162 -13 -193 -14 -35
-14 -38 1 -44 10 -3 29 0 43 8 l26 15 -3 130 c-2 76 1 148 8 174 25 98 26 90
-13 90 -20 0 -39 -6 -44 -12z"/>
<path d="M18831 4524 c-22 -22 -25 -34 -25 -98 -1 -65 2 -77 23 -100 13 -14
28 -23 32 -20 5 3 9 41 9 85 0 79 0 79 40 119 l40 40 -47 -1 c-36 -1 -54 -7
-72 -25z"/>
<path d="M19929 4544 c-1 -5 -2 -61 -3 -125 -1 -96 -4 -120 -18 -136 -10 -11
-18 -24 -18 -29 0 -17 -65 -74 -83 -74 -9 0 -17 -7 -17 -16 0 -11 5 -14 16
-10 9 3 33 9 55 12 24 4 39 12 39 21 0 7 7 16 15 19 8 3 26 26 40 50 46 78 46
202 0 265 -14 18 -26 29 -26 23z"/>
<path d="M22863 4424 c2 -109 0 -127 -15 -138 -24 -18 -23 -48 2 -64 15 -9 20
-9 20 0 0 6 9 22 21 34 18 20 21 36 22 131 2 91 -1 112 -17 136 -10 15 -22 27
-26 27 -5 0 -7 -57 -7 -126z"/>
<path d="M23638 4460 c-3 -25 -1 -49 3 -54 14 -16 20 17 11 59 l-9 40 -5 -45z"/>
<path d="M18277 4454 c-4 -4 -7 -18 -7 -31 0 -16 6 -23 19 -23 11 0 22 4 25 9
8 12 -27 54 -37 45z"/>
<path d="M32340 4450 c0 -5 5 -10 10 -10 6 0 10 5 10 10 0 6 -4 10 -10 10 -5
0 -10 -4 -10 -10z"/>
<path d="M6573 4406 c4 -10 7 -20 7 -22 0 -2 9 -4 19 -4 11 0 23 -4 26 -10 3
-5 21 -10 40 -10 19 0 37 5 40 10 4 6 -5 10 -21 10 -15 0 -32 7 -38 15 -6 8
-26 18 -45 21 -30 6 -33 5 -28 -10z"/>
<path d="M23880 4335 c0 -34 4 -65 9 -70 6 -6 11 -30 13 -55 3 -46 19 -59 53
-46 12 4 12 9 0 33 -8 15 -19 51 -26 78 -14 58 -15 62 -34 95 -14 24 -15 22
-15 -35z"/>
<path d="M15640 4380 c-1 -3 -6 -45 -10 -95 -4 -49 -11 -102 -15 -116 -5 -21
-3 -27 14 -32 53 -14 73 101 33 198 -12 28 -22 48 -22 45z"/>
<path d="M20185 4348 c-2 -7 -6 -44 -8 -83 -1 -38 -7 -78 -11 -87 -9 -21 26
-42 54 -33 17 5 20 15 20 68 -1 39 -6 69 -15 81 -8 11 -15 28 -15 37 0 22 -19
35 -25 17z"/>
<path d="M15170 4327 c0 -22 2 -22 78 -19 69 4 91 12 92 35 0 4 -38 7 -85 7
-82 0 -85 -1 -85 -23z"/>
<path d="M32944 4306 c-3 -8 -1 -23 5 -33 9 -15 10 -13 11 15 0 34 -7 42 -16
18z"/>
<path d="M24150 4258 c0 -29 -3 -63 -7 -76 -5 -21 -3 -23 23 -20 16 2 29 9 28
16 -1 6 -2 39 -2 72 -2 53 -4 60 -22 60 -17 0 -20 -7 -20 -52z"/>
<path d="M23596 4252 c-19 -21 -37 -77 -28 -86 3 -3 16 -6 28 -6 16 0 30 12
48 42 26 44 25 52 -10 62 -14 4 -26 0 -38 -12z"/>
<path d="M18221 4234 c-22 -28 -29 -94 -10 -94 6 0 28 15 48 33 20 18 47 40
60 49 30 21 28 24 -30 32 -43 6 -49 5 -68 -20z"/>
<path d="M24421 4234 c0 -11 3 -14 6 -6 3 7 2 16 -1 19 -3 4 -6 -2 -5 -13z"/>
<path d="M19046 4186 c-15 -20 -36 -36 -46 -36 -10 0 -22 -4 -25 -10 -9 -14
71 -12 115 3 30 10 35 17 35 42 0 25 -4 31 -26 33 -20 2 -32 -5 -53 -32z"/>
<path d="M22231 4201 c-23 -23 -28 -51 -9 -51 6 0 27 5 45 12 25 9 33 17 31
33 -4 28 -42 31 -67 6z"/>
<path d="M23325 4194 c-14 -22 -14 -24 9 -30 30 -7 46 1 46 25 0 30 -37 33
-55 5z"/>
<path d="M24417 4187 c-10 -26 9 -40 42 -32 38 8 39 18 6 33 -33 15 -42 15
-48 -1z"/>
<path d="M15355 4170 c-10 -11 -24 -20 -32 -20 -8 0 -11 -4 -8 -10 9 -15 98
-12 120 4 11 8 16 19 12 30 -9 23 -69 21 -92 -4z"/>
<path d="M14635 4140 c-7 -12 32 -12 60 0 16 7 13 9 -17 9 -20 1 -40 -3 -43
-9z"/>
<path d="M6346 4043 c-7 -16 11 -36 25 -27 4 2 9 -3 13 -11 10 -27 26 -15 26
20 0 32 -3 35 -29 35 -18 0 -31 -6 -35 -17z"/>
<path d="M6346 3741 c-11 -17 6 -40 34 -46 29 -6 40 -27 40 -77 0 -24 4 -28
30 -28 25 0 30 4 30 24 0 14 -4 28 -10 31 -18 11 -11 35 10 35 13 0 22 9 26
26 8 32 -8 51 -26 29 -17 -20 -86 -20 -94 0 -6 17 -32 20 -40 6z"/>
<path d="M6258 3733 c7 -3 16 -2 19 1 4 3 -2 6 -13 5 -11 0 -14 -3 -6 -6z"/>
<path d="M6625 3670 c-3 -5 1 -10 10 -10 9 0 13 5 10 10 -3 6 -8 10 -10 10 -2
0 -7 -4 -10 -10z"/>
<path d="M6636 3621 c-27 -30 -11 -43 30 -26 26 11 41 12 55 5 15 -8 19 -7 19
4 0 10 -6 13 -15 10 -9 -4 -15 0 -15 10 0 23 -53 21 -74 -3z"/>
<path d="M6536 3595 c-9 -14 -16 -27 -16 -30 0 -10 22 -5 36 10 9 8 24 15 36
15 29 0 17 22 -14 26 -19 2 -31 -4 -42 -21z"/>
<path d="M6561 3534 c0 -11 3 -14 6 -6 3 7 2 16 -1 19 -3 4 -6 -2 -5 -13z"/>
<path d="M14425 3480 c-107 -15 -208 -88 -254 -183 -47 -96 -51 -278 -8 -367
55 -115 142 -178 279 -201 64 -11 89 -10 145 1 134 26 204 81 263 206 29 61
33 79 33 159 1 90 -18 168 -50 206 -7 8 -13 20 -13 26 0 20 -101 105 -153 128
-58 26 -163 37 -242 25z m185 -185 c45 -41 70 -109 70 -190 0 -128 -49 -196
-148 -203 -75 -5 -116 21 -154 98 -48 97 -30 230 41 292 32 28 38 30 102 26
49 -3 73 -9 89 -23z"/>
<path d="M15130 3471 c-19 -4 -45 -13 -57 -20 l-23 -12 0 -319 0 -319 23 -27
c19 -22 34 -28 78 -31 47 -4 57 -2 76 19 19 20 23 37 25 112 3 98 13 114 62
102 19 -5 33 -20 50 -56 62 -128 101 -171 163 -178 61 -7 89 3 103 38 16 39 4
73 -53 148 -65 86 -65 86 -1 147 l56 53 -4 98 c-3 91 -5 102 -31 136 -32 41
-79 72 -142 94 -47 15 -270 26 -325 15z m275 -186 c33 -31 33 -74 -1 -114 -23
-28 -31 -31 -84 -31 -44 0 -59 4 -64 16 -10 25 -7 139 3 150 6 5 35 7 65 6 41
-3 62 -10 81 -27z"/>
<path d="M15859 3473 c-9 -2 -24 -18 -33 -36 -16 -28 -17 -59 -14 -257 3 -136
9 -239 16 -261 17 -52 85 -124 145 -156 46 -23 64 -27 152 -27 87 -1 106 2
148 24 61 30 111 79 139 133 19 39 21 58 22 290 l1 248 -25 19 c-34 26 -107
26 -138 0 -23 -19 -23 -23 -27 -252 l-3 -232 -37 -34 c-33 -31 -42 -34 -80
-30 -48 6 -88 31 -106 68 -13 26 -18 116 -19 337 l0 131 -34 21 c-31 20 -69
25 -107 14z"/>
<path d="M18100 3469 c-91 -8 -126 -17 -141 -35 -15 -19 -16 -587 -1 -624 17
-42 91 -61 245 -62 153 -1 211 14 278 72 35 30 43 44 50 90 14 82 -3 142 -52
184 -45 38 -48 57 -16 83 12 10 31 35 41 56 17 33 18 42 7 80 -16 53 -83 118
-142 136 -61 18 -180 27 -269 20z m158 -134 c55 -17 72 -36 72 -83 0 -40 -52
-72 -117 -72 -63 0 -83 20 -83 80 0 47 14 70 50 83 22 8 22 8 78 -8z m37 -285
c30 -11 64 -48 65 -68 0 -25 -41 -72 -77 -87 -89 -37 -153 -6 -153 75 0 47 13
73 40 83 26 9 98 7 125 -3z"/>
<path d="M20687 3473 c-31 -8 -37 -48 -37 -244 0 -152 -3 -189 -13 -189 -18 0
-43 29 -52 60 -3 14 -13 40 -21 58 -8 17 -20 47 -28 65 -50 115 -95 193 -126
218 -30 25 -43 29 -96 29 -52 0 -64 -4 -85 -26 l-24 -26 -3 -308 -3 -308 31
-26 c36 -30 62 -32 115 -10 l37 15 -4 195 c-3 180 -2 194 15 194 10 0 22 -12
28 -27 11 -32 20 -52 81 -176 76 -155 87 -172 130 -200 42 -26 125 -22 163 8
l30 25 3 318 3 319 -23 15 c-25 16 -93 28 -121 21z"/>
<path d="M22670 3460 c-19 -19 -20 -33 -20 -349 l0 -330 32 -15 c43 -22 107
-20 136 3 22 19 22 20 22 326 0 325 -3 350 -49 375 -33 17 -99 12 -121 -10z"/>
<path d="M23156 3458 c-91 -41 -136 -102 -136 -186 0 -67 22 -114 69 -153 37
-29 108 -69 124 -69 19 0 113 -49 130 -68 26 -29 13 -60 -31 -79 -42 -17 -100
-11 -174 18 -70 27 -106 25 -118 -7 -43 -113 42 -175 241 -175 147 -1 204 24
270 115 25 34 29 48 29 106 0 72 -15 103 -75 151 -31 25 -115 69 -132 69 -9 0
-56 20 -92 39 -8 4 -20 16 -28 27 -12 18 -11 24 8 47 19 25 26 27 97 27 43 0
91 -4 108 -9 45 -13 78 6 82 46 8 78 -54 113 -213 119 -98 4 -115 2 -159 -18z"/>
<path d="M23760 3467 c-21 -10 -25 -21 -28 -62 -1 -28 2 -57 7 -64 6 -10 37
-18 87 -22 42 -4 82 -13 88 -19 7 -7 13 -97 16 -263 l5 -252 38 -19 c31 -15
47 -17 80 -10 64 14 67 26 67 281 0 122 4 233 10 247 9 25 13 26 84 26 71 0
76 1 95 29 27 37 27 74 -1 111 l-22 30 -250 0 c-182 0 -258 -4 -276 -13z"/>
<path d="M24683 3458 c-25 -18 -41 -46 -72 -123 -54 -138 -123 -347 -157 -478
l-17 -68 24 -24 c23 -23 50 -28 126 -26 42 1 79 41 87 94 4 23 12 47 18 54 13
16 170 18 198 3 11 -6 22 -26 26 -48 3 -20 17 -52 31 -69 23 -31 28 -33 86
-33 69 0 107 18 107 51 0 21 -12 62 -60 209 -15 47 -38 119 -50 160 -47 158
-89 260 -118 293 -24 25 -31 27 -112 27 -72 0 -90 -3 -117 -22z m147 -285 c13
-50 20 -99 17 -107 -7 -16 -60 -22 -91 -10 -21 8 -21 51 0 123 37 128 41 127
74 -6z"/>
<path d="M13518 3453 c-30 -12 -40 -23 -48 -51 -6 -21 -10 -161 -10 -324 l0
-287 24 -27 c20 -24 31 -28 81 -28 81 -1 95 18 95 129 0 46 4 95 10 109 9 26
11 26 112 26 137 0 152 8 156 82 4 75 -9 82 -145 84 -56 1 -106 5 -112 8 -15
10 -14 99 1 114 8 8 48 12 114 12 135 0 163 6 175 39 14 36 2 89 -24 105 -34
22 -380 29 -429 9z"/>
<path d="M16678 3453 c-15 -10 -30 -23 -33 -31 -12 -31 -24 -203 -30 -409 -5
-221 -5 -222 17 -243 28 -26 59 -34 101 -26 56 10 61 31 67 235 4 134 8 186
17 188 7 3 17 -6 21 -19 22 -56 34 -96 46 -143 23 -94 24 -95 127 -95 63 0 91
4 93 13 2 6 9 32 15 57 7 25 17 68 23 97 10 53 41 94 57 77 5 -5 11 -89 13
-186 3 -177 3 -178 30 -205 34 -33 112 -38 134 -8 37 50 -9 650 -51 681 -22
17 -161 27 -185 14 -11 -6 -20 -15 -20 -21 0 -6 -6 -25 -14 -42 -15 -34 -49
-145 -66 -214 -11 -44 -35 -77 -50 -68 -5 3 -11 23 -15 46 -4 22 -13 53 -21
67 -8 15 -14 32 -14 37 0 10 -66 175 -72 180 -43 36 -145 45 -190 18z"/>
<path d="M18738 3448 c-18 -29 -23 -278 -8 -433 13 -145 43 -193 150 -247 39
-20 59 -23 155 -22 97 1 115 4 150 25 55 32 103 81 116 118 6 17 15 31 20 31
5 0 9 112 9 259 0 251 -1 260 -20 266 -11 3 -20 11 -20 16 0 17 -94 9 -117
-10 -21 -18 -22 -26 -25 -244 l-3 -225 -30 -38 c-76 -93 -202 -64 -220 52 -3
22 -5 125 -4 228 l2 187 -28 29 c-37 39 -104 43 -127 8z"/>
<path d="M21229 3448 c-31 -26 -48 -58 -80 -143 -12 -33 -28 -74 -35 -92 -8
-17 -14 -36 -14 -42 0 -6 -6 -25 -14 -43 -8 -18 -23 -64 -34 -103 -11 -38 -27
-94 -36 -124 -23 -75 -21 -137 3 -151 22 -11 111 -13 126 -2 14 10 45 79 45
102 0 10 12 28 28 40 24 20 35 22 117 17 81 -4 91 -7 112 -31 13 -15 23 -38
23 -51 0 -14 12 -35 27 -50 33 -30 79 -33 130 -8 30 14 34 20 28 42 -3 14 -13
55 -20 91 -8 36 -24 97 -35 135 -12 39 -26 88 -32 110 -5 22 -16 54 -24 72 -8
17 -14 38 -14 46 0 23 -41 128 -62 158 -18 27 -29 30 -158 44 -48 5 -58 3 -81
-17z m135 -180 c42 -220 42 -215 16 -223 -12 -4 -42 -4 -66 0 -52 7 -65 35
-41 82 8 15 18 50 22 77 11 69 59 114 69 64z"/>
<path d="M21833 3453 c-26 -18 -29 -48 -9 -95 8 -18 33 -94 57 -168 23 -74 46
-139 50 -145 4 -5 10 -26 14 -45 4 -19 14 -48 21 -65 7 -16 23 -56 35 -87 35
-89 55 -103 149 -102 100 1 122 15 161 101 16 36 29 69 29 75 0 5 6 24 14 41
8 18 19 48 25 67 9 35 23 76 47 140 31 85 54 177 54 216 0 36 -5 46 -29 63
-18 13 -45 21 -69 21 -58 0 -76 -25 -115 -160 -9 -30 -25 -86 -37 -124 -11
-38 -20 -74 -20 -79 0 -23 -43 -147 -51 -147 -16 0 -39 47 -54 111 -35 156
-100 336 -133 372 -21 22 -34 27 -71 26 -25 0 -56 -7 -68 -16z"/>
<path d="M19664 3451 c-155 -9 -144 19 -144 -352 l0 -307 34 -21 c31 -19 48
-21 207 -20 113 0 186 5 209 13 35 13 35 13 35 72 l0 59 -150 5 -150 5 -3 58
c-4 84 0 87 128 87 60 0 115 3 124 6 12 5 16 20 16 59 0 64 -2 65 -146 65
-120 0 -126 5 -122 82 l3 53 150 5 150 5 0 55 0 54 -40 12 c-42 13 -134 14
-301 5z"/>
<path d="M14080 2264 c-104 -40 -162 -91 -179 -159 -20 -81 -7 -143 43 -195
37 -40 89 -66 190 -96 84 -25 106 -42 106 -81 0 -51 -127 -67 -215 -28 -77 34
-106 27 -125 -29 -22 -68 30 -134 121 -155 58 -14 185 -14 248 0 61 13 121 55
158 110 22 34 27 51 26 103 -1 122 -63 188 -233 247 -97 33 -129 68 -94 103
20 21 136 21 194 1 51 -18 72 -13 90 20 23 43 3 94 -49 129 -42 28 -52 30
-155 33 -61 1 -118 0 -126 -3z"/>
<path d="M15715 2263 c-53 -8 -136 -54 -181 -99 -23 -25 -57 -75 -75 -112 -30
-62 -32 -75 -33 -173 0 -100 1 -109 33 -174 38 -77 92 -134 159 -166 85 -42
304 -36 358 9 39 33 47 58 28 97 -21 44 -52 53 -113 31 -59 -21 -79 -20 -132
3 -86 38 -129 109 -129 209 0 158 125 258 260 207 77 -29 93 -29 119 -1 27 29
24 57 -10 100 -33 42 -86 63 -174 69 -44 3 -93 3 -110 0z"/>
<path d="M22550 2260 c-80 -8 -135 -32 -144 -62 -10 -38 -7 -575 4 -602 5 -14
28 -35 52 -48 39 -21 56 -23 188 -22 140 0 147 1 205 29 77 38 138 100 170
171 21 48 25 72 25 155 0 110 -17 169 -71 244 -29 41 -109 105 -130 105 -5 0
-22 6 -37 14 -32 16 -170 24 -262 16z m144 -150 c67 -11 104 -39 139 -105 28
-55 30 -186 2 -230 -31 -50 -64 -77 -113 -91 -60 -18 -91 -18 -114 3 -16 15
-18 35 -18 214 0 237 -5 227 104 209z"/>
<path d="M24140 2264 c-14 -3 -38 -15 -54 -27 l-28 -23 1 -300 c0 -166 4 -312
9 -325 18 -46 45 -59 143 -71 111 -13 252 1 314 31 57 27 132 97 157 145 26
49 47 144 47 206 0 115 -63 248 -144 301 -83 54 -120 62 -275 65 -80 1 -156 0
-170 -2z m291 -190 c55 -37 79 -95 79 -190 0 -82 -15 -123 -62 -167 -36 -35
-150 -51 -176 -25 -13 13 -17 374 -4 394 19 29 111 22 163 -12z"/>
<path d="M14649 2234 c-24 -25 -24 -29 -27 -241 -3 -195 -1 -221 18 -283 25
-80 71 -134 145 -170 44 -22 63 -25 160 -25 97 0 116 3 158 25 55 27 96 70
129 133 22 40 23 52 23 290 l0 249 -28 24 c-35 30 -94 32 -128 5 -23 -19 -24
-25 -34 -261 l-10 -242 -32 -29 c-45 -39 -74 -45 -120 -22 -65 31 -73 60 -73
273 -1 206 -7 251 -41 280 -37 30 -109 27 -140 -6z"/>
<path d="M17110 2241 c-31 -10 -68 -26 -83 -36 -75 -49 -102 -179 -53 -251 36
-53 73 -76 226 -139 66 -27 92 -53 88 -90 -3 -25 -9 -32 -43 -43 -44 -15 -135
-3 -187 24 -40 20 -74 17 -92 -8 -21 -30 -20 -54 4 -93 37 -60 83 -75 228 -75
119 0 130 2 177 28 27 15 62 45 78 68 25 36 29 50 29 113 0 59 -4 79 -24 107
-35 53 -139 114 -253 148 -11 4 -28 18 -39 32 -15 21 -16 30 -7 50 10 22 16
24 80 24 37 0 88 -7 111 -15 49 -17 75 -13 91 17 26 49 -11 112 -83 143 -50
20 -177 18 -248 -4z"/>
<path d="M17890 2238 c-66 -31 -114 -71 -155 -134 -30 -45 -39 -71 -49 -139
-29 -196 32 -342 173 -412 53 -26 64 -28 181 -27 115 0 129 2 175 27 66 34
130 103 155 168 16 41 21 75 21 164 1 101 -2 119 -26 170 -35 77 -115 155
-189 183 -80 30 -221 31 -286 0z m218 -124 c70 -34 112 -127 112 -246 0 -105
-88 -208 -177 -208 -74 0 -153 90 -168 190 -7 48 9 170 23 179 5 3 14 16 21
29 18 34 81 71 122 71 20 1 50 -6 67 -15z"/>
<path d="M18600 2228 c-19 -31 -20 -52 -20 -314 0 -390 -3 -384 223 -384 238
0 262 10 232 101 l-17 50 -117 -3 c-64 -1 -122 1 -129 6 -9 5 -12 72 -12 268
0 256 0 261 -22 284 -18 18 -34 24 -71 24 -43 0 -49 -3 -67 -32z"/>
<path d="M19261 2236 c-22 -23 -22 -25 -19 -343 l3 -321 25 -21 c34 -29 105
-24 131 10 17 22 19 50 19 327 0 309 -2 331 -39 359 -28 22 -95 16 -120 -11z"/>
<path d="M19678 2250 c-71 -13 -68 0 -68 -330 0 -164 3 -311 6 -327 11 -56 48
-67 219 -66 132 0 156 3 197 22 26 11 50 21 53 21 3 0 13 6 21 13 56 46 89 94
120 172 27 69 25 220 -3 289 -22 53 -96 146 -117 146 -8 0 -19 6 -25 14 -7 8
-31 17 -54 21 -23 3 -53 10 -67 15 -33 11 -235 19 -282 10z m246 -134 c96 -25
136 -87 136 -211 0 -86 -17 -133 -67 -187 -27 -29 -104 -58 -152 -58 -56 0
-61 21 -61 241 0 193 0 197 23 212 28 20 52 21 121 3z"/>
<path d="M21296 2239 l-27 -21 3 -323 c3 -376 1 -365 93 -365 73 0 85 20 85
139 0 105 12 128 58 109 40 -17 54 -30 69 -63 24 -52 83 -144 108 -168 23 -24
106 -23 135 1 19 16 21 24 15 59 -3 23 -13 47 -21 54 -8 6 -14 17 -14 25 0 7
-6 19 -12 26 -7 8 -17 21 -23 30 -5 9 -20 30 -33 46 l-23 31 45 43 c25 24 52
60 61 80 47 114 -21 257 -142 301 -37 13 -81 17 -199 17 -139 0 -154 -2 -178
-21z m293 -130 c38 -13 51 -35 51 -84 0 -29 -7 -44 -32 -66 -28 -27 -37 -30
-87 -27 l-56 3 -3 78 c-2 50 1 84 9 93 14 17 74 18 118 3z"/>
<path d="M22062 2240 c-26 -24 -24 2 -23 -370 l2 -295 25 -22 c35 -32 94 -31
131 1 l28 24 -2 297 c0 163 -4 307 -7 320 -16 62 -107 88 -154 45z"/>
<path d="M23435 2240 c-45 -28 -75 -95 -140 -305 -21 -66 -53 -166 -71 -222
-19 -56 -34 -111 -34 -122 0 -10 14 -31 31 -45 23 -20 42 -26 78 -26 59 0 76
13 96 70 31 88 33 90 140 90 104 0 113 -5 130 -75 11 -49 57 -85 109 -85 56 0
92 13 106 39 8 17 5 39 -19 108 -16 49 -41 131 -56 183 -47 165 -53 184 -73
235 -57 149 -86 175 -196 175 -53 0 -79 -5 -101 -20z m141 -276 c13 -38 23
-84 23 -101 l1 -33 -64 0 c-36 0 -67 3 -69 8 -3 4 1 25 9 47 7 22 14 45 14 51
0 25 42 105 53 101 6 -2 21 -35 33 -73z"/>
<path d="M20656 2235 c-20 -15 -38 -42 -56 -85 -6 -14 -15 -34 -20 -45 -13
-27 -39 -103 -49 -140 -5 -16 -20 -64 -34 -105 -38 -107 -67 -227 -67 -271 0
-46 18 -59 85 -59 38 0 52 5 76 29 17 17 29 40 29 55 0 14 10 36 23 49 19 22
33 26 113 30 50 3 95 2 100 -1 22 -15 44 -58 44 -87 0 -51 34 -75 107 -75 72
0 87 13 80 67 -5 38 -31 124 -46 153 -5 9 -12 31 -15 50 -4 19 -13 51 -20 70
-8 19 -24 69 -36 110 -60 199 -78 236 -125 256 -45 18 -164 18 -189 -1z m138
-211 c3 -9 6 -28 6 -42 1 -15 7 -38 15 -52 8 -14 14 -44 15 -68 l0 -43 -72 3
-73 3 2 54 c2 29 7 59 12 65 5 6 14 30 20 54 10 37 15 42 40 42 17 0 31 -7 35
-16z"/>
<path d="M16263 1715 c-33 -23 -48 -79 -34 -126 14 -46 44 -69 91 -69 79 0
113 33 112 109 -1 38 -6 51 -32 74 -35 31 -101 37 -137 12z"/>
<path d="M3588 1388 c3 -12 11 -34 19 -48 7 -14 13 -34 13 -46 0 -11 7 -29 15
-40 8 -10 15 -26 15 -34 0 -8 9 -32 20 -53 11 -20 20 -43 20 -51 0 -8 6 -27
14 -43 8 -15 24 -62 36 -103 13 -41 26 -82 30 -90 4 -9 11 -31 15 -50 4 -19
11 -41 15 -50 5 -8 25 -69 47 -135 l39 -120 58 -6 c32 -4 75 -11 95 -17 20 -6
88 -20 151 -32 63 -11 138 -27 165 -35 28 -8 66 -17 85 -21 19 -3 40 -10 45
-15 6 -4 42 -13 79 -19 38 -6 77 -15 87 -20 20 -11 67 -13 122 -4 41 7 48 29
22 74 -8 14 -14 42 -15 63 0 21 -7 45 -15 53 -8 9 -15 27 -15 42 0 15 -9 41
-20 57 -11 17 -20 43 -20 58 0 15 -7 30 -15 33 -10 4 -15 20 -15 51 0 31 -5
50 -16 58 -10 7 -19 32 -22 66 -2 30 -11 63 -18 74 -8 11 -14 34 -14 52 0 39
-26 73 -57 73 -12 0 -28 7 -37 15 -8 8 -28 15 -45 15 -16 0 -36 6 -43 14 -8 7
-36 16 -63 20 -27 5 -58 14 -69 22 -11 8 -42 14 -68 14 -36 0 -48 4 -48 15 0
11 -12 15 -49 15 -29 0 -53 6 -60 14 -6 7 -34 16 -63 18 -33 4 -54 11 -60 22
-5 10 -22 16 -41 16 -18 0 -41 6 -52 14 -11 7 -40 17 -65 21 -25 4 -48 12 -51
17 -4 6 -27 13 -53 15 -25 3 -51 12 -57 19 -6 8 -19 14 -29 14 -14 0 -17 -5
-12 -22z m282 -148 c0 -5 -12 -10 -26 -10 -14 0 -23 4 -19 10 3 6 15 10 26 10
10 0 19 -4 19 -10z m180 -20 c26 -26 25 -32 -2 -28 -15 2 -24 11 -26 26 -4 27
2 28 28 2z m160 -50 c0 -5 -9 -10 -19 -10 -11 0 -23 5 -26 10 -4 6 5 10 19 10
14 0 26 -4 26 -10z m433 -367 c3 -5 8 -27 11 -49 6 -36 5 -42 -13 -47 -14 -3
-21 1 -26 20 -3 13 -3 28 0 33 3 4 0 10 -7 12 -16 6 -2 38 16 38 8 0 17 -3 19
-7z"/>
<path d="M35140 1125 c-7 -8 -22 -15 -34 -15 -12 0 -31 -7 -42 -15 -10 -8 -26
-15 -34 -15 -8 0 -33 -9 -55 -20 -22 -11 -50 -19 -62 -20 -12 0 -25 -5 -28
-10 -4 -6 -22 -17 -41 -25 -29 -12 -34 -19 -34 -49 0 -35 13 -55 25 -36 9 15
25 12 25 -5 0 -31 44 -104 70 -115 35 -14 37 -52 5 -106 -16 -26 -21 -45 -15
-49 21 -13 -1 -22 -50 -21 -49 2 -50 2 -57 -34 -5 -19 -8 -104 -7 -187 l0
-153 30 -31 29 -31 143 4 c111 3 146 8 153 19 5 8 9 118 8 244 0 127 4 275 10
330 6 55 11 157 11 228 0 118 -1 127 -19 127 -10 0 -24 -7 -31 -15z m-144
-487 c4 -6 0 -16 -9 -23 -10 -7 -17 -22 -17 -34 0 -22 -19 -30 -21 -8 -1 6 -3
23 -4 37 -2 14 -1 28 2 33 7 11 41 8 49 -5z m64 -73 c0 -16 -17 -19 -44 -9
-22 9 -10 24 20 24 15 0 24 -6 24 -15z"/>
</g>
</svg>
